<svg width="111" height="50" viewBox="0 0 111 50" fill="none" xmlns="http://www.w3.org/2000/svg">
<g clip-path="url(#clip0_165_684)">
<path fill-rule="evenodd" clip-rule="evenodd" d="M1.43858 37.8356H7.18581V39.2799H0.000508618V36.3914C-0.0143039 35.3229 0.378893 34.2892 1.09932 33.5028C1.21072 33.3859 1.32212 33.274 1.43858 33.1672C2.22106 32.4428 3.25062 32.0477 4.31473 32.0637H7.18581V33.5028H4.31473C3.93736 33.4986 3.5631 33.5718 3.21484 33.7178C2.86658 33.8638 2.55163 34.0797 2.28927 34.3521C2.01819 34.6155 1.80374 34.9319 1.65917 35.2817C1.51459 35.6316 1.44297 36.0075 1.44871 36.3863V37.8356H1.43858ZM15.0395 32.0637H16.4776V39.2799H15.0395V36.3914H13.6014C13.224 36.3914 12.8502 36.4661 12.5016 36.6113C12.1529 36.7566 11.8362 36.9694 11.5695 37.2377C11.3028 37.506 11.0914 37.8245 10.9474 38.1749C10.8035 38.5253 10.7297 38.9008 10.7304 39.2799H9.29228V32.0637H10.7304V36.0506C11.5121 35.3283 12.5393 34.9335 13.6014 34.9471H15.0395V32.0637ZM25.7694 33.5028H22.8932V37.8356H25.7694V39.2799H18.5841V37.8356H21.4551V33.5028H18.5841V32.0637H25.7694V33.5028ZM33.6231 32.0637H35.0611V39.2799H33.2635L29.3088 33.991V39.2799H27.8505V32.0637H29.6481L33.6028 37.3525V32.0637H33.6231ZM41.5983 32.0637H44.4744V39.2799H43.0414V36.3914H41.5983C41.22 36.3893 40.8451 36.4627 40.4953 36.6071C40.1454 36.7516 39.8275 36.9643 39.5601 37.2329C39.2926 37.5015 39.0808 37.8208 38.937 38.1721C38.7932 38.5235 38.7201 38.9 38.7221 39.2799H37.2891V36.3914C37.2879 35.8043 37.405 35.223 37.6335 34.6827C37.9608 33.9068 38.5108 33.2464 39.2133 32.7858C39.9166 32.3068 40.7486 32.0549 41.5983 32.0637ZM43.0414 34.9471V33.5028H41.5983C40.8932 33.4933 40.2108 33.7533 39.6893 34.2301C39.1624 34.6915 38.825 35.3331 38.7424 36.0303C39.5245 35.3208 40.5444 34.9339 41.5983 34.9471H43.0414ZM2.15762 44.2433C1.96692 44.2433 1.78403 44.3194 1.64918 44.4548C1.51434 44.5902 1.43858 44.7739 1.43858 44.9654C1.43858 45.1569 1.51434 45.3406 1.64918 45.476C1.78403 45.6115 1.96692 45.6875 2.15762 45.6875H2.87665C3.77301 45.6798 4.64813 45.9615 5.37303 46.491C6.09903 47.0034 6.64777 47.7305 6.94276 48.571C6.94276 48.6269 6.9782 48.6829 6.99339 48.7388C7.12094 49.1522 7.18581 49.5825 7.18581 50.0153H0.000508618V48.5557H5.36796L5.32746 48.4947C5.08033 48.0756 4.73203 47.7258 4.31473 47.4776C3.88653 47.2258 3.39817 47.0957 2.90197 47.1013H2.15762C1.84588 47.1114 1.53585 47.0513 1.25022 46.9255C0.964598 46.7996 0.710614 46.6113 0.506872 46.3741C0.333459 46.1656 0.19804 45.928 0.106845 45.6723C0.0311735 45.4393 -0.00477752 45.1952 0.000508618 44.9502C-0.00309599 44.666 0.0511926 44.384 0.16004 44.1217C0.268886 43.8593 0.429993 43.6221 0.633463 43.4245C0.830161 43.2202 1.06638 43.0584 1.32761 42.9491C1.58885 42.8398 1.86958 42.7852 2.15255 42.7888H7.18075V44.2433H2.15762ZM15.8801 46.4097C15.8836 47.1591 15.6514 47.8906 15.2167 48.4998C15.4344 48.5488 15.657 48.5727 15.8801 48.571V50.0153C15.3921 50.0161 14.9075 49.9335 14.4471 49.7712C14.2952 49.7152 14.1483 49.6542 14.0015 49.583C13.4764 49.8697 12.8876 50.0184 12.29 50.0153C11.6565 50.0218 11.0333 49.8548 10.4873 49.5321C9.944 49.2185 9.49321 48.7657 9.18088 48.2201C8.86246 47.6703 8.69471 47.0457 8.69471 46.4097C8.69471 45.7737 8.86246 45.149 9.18088 44.5993C9.49471 44.0502 9.9477 43.5944 10.4938 43.2782C11.0399 42.962 11.6596 42.7967 12.29 42.799C12.4097 42.7913 12.5298 42.7913 12.6495 42.799C13.1987 42.8433 13.7297 43.0175 14.1989 43.3076C14.709 43.6323 15.1302 44.0798 15.4243 44.6094C15.7275 45.1456 15.8847 45.7524 15.8801 46.369V46.4097ZM13.9306 47.8031C14.2653 47.4156 14.4457 46.9175 14.4369 46.4046C14.4343 45.8331 14.2074 45.2857 13.8055 44.881C13.4036 44.4764 12.859 44.2473 12.29 44.2433C12.1193 44.2427 11.9493 44.2632 11.7836 44.3043C11.3139 44.4152 10.8951 44.6817 10.5947 45.0609C10.2942 45.4401 10.1298 45.9099 10.1278 46.3944C10.1278 46.6787 10.1836 46.9601 10.2921 47.2227C10.4005 47.4852 10.5595 47.7237 10.7599 47.9245C10.9603 48.1253 11.1981 48.2844 11.4598 48.3927C11.7215 48.501 12.0019 48.5564 12.2849 48.5557C12.402 48.5557 12.5189 48.5455 12.6343 48.5252C12.2734 48.1129 11.9949 47.6346 11.814 47.1166H13.3837C13.5304 47.3718 13.7148 47.6033 13.9306 47.8031ZM17.8853 42.7939H19.3233V45.6825C19.322 46.0615 19.3954 46.4371 19.5392 46.7875C19.683 47.1379 19.8944 47.4563 20.1613 47.7244C20.4282 47.9924 20.7452 48.2047 21.0941 48.3492C21.4431 48.4936 21.817 48.5672 22.1944 48.5659H23.6325V42.7838H25.0706V50H22.1944C21.1319 50.0156 20.104 49.6206 19.3233 48.8965C19.2069 48.7897 19.0904 48.6727 18.9841 48.5557C18.2631 47.7717 17.8697 46.7394 17.8853 45.6723V42.7838V42.7939ZM31.6077 42.7939H34.4839V50H33.0458V47.1166H31.6077C31.1 47.1118 30.6008 47.2472 30.1646 47.5081C29.7291 47.7581 29.3674 48.1196 29.1164 48.5557C28.8655 48.9952 28.7345 49.4934 28.7367 50H27.2986V47.1166C27.2976 46.402 27.4727 45.6982 27.8085 45.0682C28.1443 44.4381 28.6301 43.9014 29.2228 43.5059C29.926 43.0269 30.7581 42.775 31.6077 42.7838V42.7939ZM33.0458 45.6825V44.2433H31.6077C30.905 44.2433 30.2268 44.5022 29.7014 44.9708C29.176 45.4394 28.8399 46.0852 28.7569 46.786C29.5372 46.0768 30.5554 45.6899 31.6077 45.7028L33.0458 45.6825ZM38.869 44.2433C38.6783 44.2433 38.4954 44.3194 38.3606 44.4548C38.2257 44.5902 38.15 44.7739 38.15 44.9654C38.15 45.1569 38.2257 45.3406 38.3606 45.476C38.4954 45.6115 38.6783 45.6875 38.869 45.6875H39.588C40.4844 45.6798 41.3595 45.9615 42.0844 46.491C42.8104 47.0034 43.3591 47.7305 43.6541 48.571C43.6541 48.6269 43.6896 48.6829 43.7048 48.7388C43.8323 49.1522 43.8972 49.5825 43.8972 50.0153H36.7119V48.5557H42.0793L42.0287 48.4947C41.7816 48.0756 41.4333 47.7258 41.016 47.4776C40.5878 47.2258 40.0994 47.0957 39.6032 47.1013H38.869C38.5586 47.1072 38.2508 47.0437 37.9679 46.9152C37.685 46.7868 37.4341 46.5967 37.2334 46.3588C37.06 46.1504 36.9246 45.9128 36.8334 45.657C36.7526 45.4249 36.7115 45.1808 36.7119 44.9349C36.7132 44.3608 36.9409 43.8105 37.3452 43.4045C37.7494 42.9985 38.2973 42.7698 38.869 42.7685H43.8972V44.2433H38.869ZM51.7813 42.799H53.2193V50H51.7813V47.1166H50.3432C49.5817 47.1166 48.8515 47.4203 48.313 47.9611C47.7746 48.5018 47.4721 49.2353 47.4721 50H46.034V42.7838H47.4721V46.786C48.2533 46.0628 49.2808 45.6679 50.3432 45.6825H51.7813V42.7838V42.799ZM58.364 42.799H65.5493V44.2433H62.6731V50H61.2705V44.2433H58.3944V42.7838L58.364 42.799ZM67.8127 43.8568C68.4013 43.2659 69.1757 42.8983 70.0039 42.8167C70.8321 42.7352 71.6629 42.9447 72.3545 43.4096C73.046 43.8745 73.5556 44.566 73.7963 45.3661C74.0369 46.1662 73.9937 47.0253 73.6741 47.797C73.3544 48.5687 72.7781 49.2051 72.0435 49.5977C71.3088 49.9903 70.4612 50.1147 69.6454 49.9499C68.8295 49.785 68.0959 49.3409 67.5697 48.6935C67.0434 48.046 66.757 47.2353 66.7595 46.3995C66.7532 45.926 66.8434 45.4561 67.0245 45.0188C67.2056 44.5816 67.4739 44.1861 67.8127 43.8568ZM68.8255 47.9251C69.1782 48.2781 69.6419 48.4974 70.1375 48.5455C70.6332 48.5936 71.1301 48.4676 71.5436 48.189C71.9571 47.9103 72.2616 47.4963 72.4052 47.0175C72.5488 46.5386 72.5226 46.0246 72.3311 45.5629C72.1395 45.1013 71.7945 44.7207 71.3549 44.4859C70.9152 44.2511 70.4081 44.1767 69.9199 44.2754C69.4318 44.3741 68.9928 44.6397 68.6778 45.027C68.3628 45.4144 68.1913 45.8994 68.1925 46.3995C68.1886 46.6837 68.2428 46.9658 68.3516 47.2282C68.4605 47.4906 68.6218 47.7278 68.8255 47.9251ZM75.7981 42.7838H77.2362V45.6723C77.2339 46.1786 77.3653 46.6764 77.617 47.115C77.8688 47.5537 78.2318 47.9174 78.6692 48.1692C79.1065 48.4269 79.6053 48.5605 80.1123 48.5557H81.5504V42.7838H82.9885V50H80.1123C79.0482 50.0159 78.0186 49.6209 77.2362 48.8965C77.1197 48.7897 77.0083 48.6727 76.8969 48.5557C76.1777 47.7706 75.7846 46.739 75.7981 45.6723V42.7838ZM90.4826 47.1166H89.7788L92.6651 50H90.6396L88.2243 47.5793C87.8305 47.8354 87.5054 48.1847 87.2774 48.5964C87.0416 49.0187 86.9194 49.4955 86.9229 49.9797H85.4848V42.7838H90.5181C90.9674 42.7779 91.4063 42.9189 91.7688 43.1855C92.1258 43.4369 92.3978 43.7918 92.5486 44.2026C92.7107 44.6703 92.7107 45.1792 92.5486 45.6469C92.4574 45.9026 92.322 46.1402 92.1486 46.3487C91.9489 46.5865 91.699 46.7765 91.4169 46.905C91.1348 47.0334 90.8278 47.097 90.5181 47.0911L90.4826 47.1166ZM86.8875 46.7758C87.3547 46.3492 87.9122 46.0345 88.518 45.8554C88.922 45.7335 89.3417 45.6718 89.7636 45.6723H90.4826C90.6087 45.671 90.7323 45.6377 90.8422 45.5757C90.9476 45.5089 91.036 45.4184 91.1004 45.3112C91.1666 45.2025 91.2017 45.0776 91.2017 44.9502C91.2035 44.8552 91.1855 44.7609 91.1489 44.6733C91.1122 44.5857 91.0578 44.5068 90.989 44.4416C90.9237 44.373 90.8451 44.3187 90.758 44.2819C90.6708 44.2452 90.5771 44.2268 90.4826 44.228H86.8875V46.7758Z" fill="white"/>
<path fill-rule="evenodd" clip-rule="evenodd" d="M76.5673 0H111L105.774 6.61107H71.3416L76.5673 0ZM35.729 8.19264C35.733 10.3647 36.5936 12.4467 38.1224 13.9831C39.6512 15.5194 41.7238 16.385 43.8865 16.3904H62.6625C63.2346 16.3904 63.7833 16.6186 64.1878 17.0249C64.5924 17.4312 64.8196 17.9822 64.8196 18.5568C64.8196 19.1313 64.5924 19.6823 64.1878 20.0886C63.7833 20.4949 63.2346 20.7231 62.6625 20.7231H13.5452C11.6906 20.7231 9.91194 19.9832 8.60052 18.6662C7.2891 17.3491 6.55235 15.5628 6.55235 13.7002C6.55235 11.8376 7.2891 10.0512 8.60052 8.73416C9.91194 7.4171 11.6906 6.67718 13.5452 6.67718H29.9008L35.1366 0.0864524H13.5554C9.96025 0.0864524 6.5124 1.52075 3.97027 4.07382C1.42815 6.62688 0 10.0896 0 13.7002C0 17.3107 1.42815 20.7734 3.97027 23.3265C6.5124 25.8796 9.96025 27.3139 13.5554 27.3139H62.6726C64.9852 27.3139 67.2031 26.3913 68.8383 24.749C70.4736 23.1067 71.3922 20.8793 71.3922 18.5568C71.3922 16.2342 70.4736 14.0068 68.8383 12.3645C67.2031 10.7223 64.9852 9.79963 62.6726 9.79963H43.8865C43.4784 9.77655 43.0945 9.59745 42.8137 9.29909C42.5329 9.00073 42.3764 8.60574 42.3764 8.19518C42.3764 7.78462 42.5329 7.38963 42.8137 7.09127C43.0945 6.79291 43.4784 6.61381 43.8865 6.59072H66.2881L71.5087 0H43.8865C41.7247 0.00537089 39.6529 0.870246 38.1242 2.4055C36.5955 3.94076 35.7344 6.02147 35.729 8.19264ZM86.0818 27.3139V9.79963H92.6646V27.3139H86.0818Z" fill="white"/>
<path fill-rule="evenodd" clip-rule="evenodd" d="M16.1031 9.5301C16.1928 9.53434 16.2808 9.55698 16.3614 9.59663C16.4421 9.63627 16.5139 9.69208 16.5723 9.76063C16.6307 9.82917 16.6745 9.909 16.7011 9.99519C16.7276 10.0814 16.7363 10.1721 16.7266 10.2618C16.7169 10.3515 16.689 10.4382 16.6447 10.5167C16.6004 10.5952 16.5405 10.6637 16.4688 10.7181C16.3972 10.7724 16.3151 10.8115 16.2279 10.8328C16.1406 10.8542 16.0499 10.8573 15.9613 10.8421C15.8716 10.8379 15.7837 10.8153 15.703 10.7756C15.6223 10.736 15.5505 10.6802 15.4921 10.6116C15.4337 10.5431 15.3899 10.4632 15.3634 10.3771C15.3368 10.2909 15.3281 10.2001 15.3378 10.1104C15.3475 10.0207 15.3754 9.934 15.4197 9.85553C15.464 9.77706 15.5239 9.70854 15.5956 9.65417C15.6673 9.59981 15.7493 9.56075 15.8366 9.53942C15.9238 9.51808 16.0146 9.51491 16.1031 9.5301Z" fill="white"/>
<path fill-rule="evenodd" clip-rule="evenodd" d="M17.961 11.7982C18.0891 11.8159 18.2092 11.8712 18.3062 11.957C18.4033 12.0429 18.473 12.1555 18.5067 12.2809C18.5404 12.4063 18.5366 12.5389 18.4957 12.6622C18.4548 12.7854 18.3786 12.8938 18.2768 12.9738C18.1749 13.0539 18.0518 13.102 17.9229 13.1122C17.7939 13.1224 17.6649 13.0942 17.5518 13.0312C17.4387 12.9682 17.3466 12.8731 17.287 12.7578C17.2274 12.6425 17.2029 12.5122 17.2166 12.383C17.2259 12.295 17.2528 12.2098 17.2956 12.1324C17.3383 12.055 17.3961 11.987 17.4656 11.9324C17.535 11.8779 17.6146 11.8379 17.6997 11.8148C17.7848 11.7918 17.8736 11.7861 17.961 11.7982Z" fill="white"/>
<path fill-rule="evenodd" clip-rule="evenodd" d="M16.2606 7.52646C17.488 8.06819 18.5259 8.96657 19.2405 10.1059C19.955 11.2452 20.3136 12.5733 20.2701 13.9191C20.2265 15.2649 19.7827 16.5668 18.9959 17.6571C18.2092 18.7474 17.1154 19.5761 15.8555 20.0366L15.9517 20.3011C17.2637 19.8213 18.4027 18.958 19.2219 17.8224C20.0411 16.6868 20.5031 15.3309 20.5483 13.9293C20.5935 12.5278 20.2199 11.1447 19.4756 9.95823C18.7313 8.77177 17.6503 7.83626 16.372 7.27219L16.2606 7.52646Z" fill="white"/>
</g>
<defs>
<clipPath id="clip0_165_684">
<rect width="111" height="50" fill="white"/>
</clipPath>
</defs>
</svg>
