<svg width="35" height="35" viewBox="0 0 35 35" fill="none" xmlns="http://www.w3.org/2000/svg">
<g clip-path="url(#clip0_165_694)">
<path d="M29.8624 0C32.6998 4.44776e-07 35 2.30019 35 5.13761V29.8624C35 32.6998 32.6998 35 29.8624 35H5.13761C2.30019 35 0 32.6998 0 29.8624V5.13761C4.44803e-07 2.30019 2.30019 0 5.13761 0H29.8624ZM20.0282 7.05372C17.0919 7.05372 15.1612 8.89936 15.1612 12.1807V15.0928H11.8629V18.8664H15.1612V28.0541H19.1834V18.8664H22.2001L22.7633 15.0928H19.1834V12.6319C19.1834 11.5655 19.6661 10.5811 21.2752 10.5811H22.9242V7.3408C22.9242 7.3408 21.4361 7.05372 20.0282 7.05372Z" fill="white"/>
</g>
<defs>
<clipPath id="clip0_165_694">
<rect width="35" height="35" fill="white"/>
</clipPath>
</defs>
</svg>
