<svg width="35" height="35" viewBox="0 0 35 35" fill="none" xmlns="http://www.w3.org/2000/svg">
<g clip-path="url(#clip0_165_696)">
<path d="M29.8624 0C32.6998 4.44776e-07 35 2.30019 35 5.13761V29.8624C35 32.6998 32.6998 35 29.8624 35H5.13761C2.30019 35 0 32.6998 0 29.8624V5.13761C4.44803e-07 2.30019 2.30019 0 5.13761 0H29.8624ZM21.7588 7.12348C20.0377 7.03046 14.8741 7.03046 13.1529 7.12348C11.4782 7.21652 10.0361 7.58866 8.7801 8.79813C7.57066 10.0076 7.19849 11.4962 7.10545 13.1708C7.01243 14.892 7.01243 20.0555 7.10545 21.7767C7.19849 23.4513 7.57063 24.8935 8.7801 26.1495C10.0361 27.3589 11.4782 27.7311 13.1529 27.8242C14.8741 27.9172 20.0377 27.9172 21.7588 27.8242C23.4335 27.7311 24.9221 27.3589 26.1315 26.1495C27.3409 24.8935 27.7131 23.4513 27.8061 21.7767C27.8992 20.0555 27.8992 14.892 27.8061 13.1708C27.7131 11.4961 27.3409 10.0076 26.1315 8.79813C24.9219 7.58867 23.4335 7.21653 21.7588 7.12348ZM17.479 8.93767C18.9676 8.93767 22.2239 8.7981 23.6194 9.3563C24.5032 9.68193 25.2011 10.4262 25.5733 11.31C26.1315 12.7056 25.992 15.9618 25.992 17.4504C25.992 18.9856 26.1315 22.2419 25.5733 23.591C25.2477 24.5212 24.5032 25.2191 23.6194 25.5911C22.2239 26.1493 18.9676 26.01 17.479 26.01C15.9438 26.01 12.6876 26.1493 11.3386 25.5911C10.4082 25.2189 9.71056 24.5212 9.33842 23.591C8.78022 22.2419 8.91964 18.9856 8.91964 17.4504C8.91964 15.9618 8.78022 12.7056 9.33842 11.31C9.71057 10.4262 10.4082 9.72844 11.3386 9.3563C12.6876 8.79809 15.9438 8.93767 17.479 8.93767ZM17.479 12.1009C14.5019 12.1009 12.1294 14.5198 12.1294 17.4504C12.1294 20.4276 14.5018 22.7999 17.479 22.8001C20.4097 22.8001 22.8287 20.4276 22.8287 17.4504C22.8287 14.5198 20.4097 12.1009 17.479 12.1009ZM17.479 14.0082C19.3863 14.0082 20.9213 15.5432 20.9215 17.4504C20.9215 19.4043 19.3863 20.9395 17.479 20.9395C15.5718 20.9395 13.9902 19.4041 13.9902 17.4504C13.9902 15.5432 15.5253 14.0082 17.479 14.0082ZM23.0147 10.6589C22.317 10.6589 21.7589 11.217 21.7588 11.9148C21.7588 12.6125 22.317 13.1707 23.0147 13.1708C23.7125 13.1708 24.2707 12.6125 24.2707 11.9148C24.2707 11.217 23.7125 10.6589 23.0147 10.6589Z" fill="white"/>
</g>
<defs>
<clipPath id="clip0_165_696">
<rect width="35" height="35" fill="white"/>
</clipPath>
</defs>
</svg>
