<svg width="161" height="47" viewBox="0 0 161 47" fill="none" xmlns="http://www.w3.org/2000/svg">
<g clip-path="url(#clip0_30_7)">
<path fill-rule="evenodd" clip-rule="evenodd" d="M22.252 0H0.767091C0.664926 0.000775244 0.563925 0.0221069 0.469932 0.062761C0.375939 0.103415 0.290819 0.162585 0.219496 0.236848C0.148172 0.311111 0.0920601 0.398993 0.0544058 0.495411C0.0167515 0.591829 -0.00169788 0.69487 0.000124771 0.798573V18.1675C-0.00143661 18.2708 0.0170625 18.3734 0.0545657 18.4695C0.0920688 18.5655 0.147841 18.6531 0.218698 18.7273C0.289554 18.8014 0.374107 18.8607 0.467526 18.9017C0.560946 18.9426 0.661402 18.9645 0.763158 18.9661H8.43282C8.53532 18.9663 8.63674 18.9873 8.73119 19.0277C8.82564 19.0681 8.91123 19.1272 8.98297 19.2015C9.05471 19.2758 9.11117 19.3639 9.14907 19.4606C9.18697 19.5573 9.20555 19.6606 9.20372 19.7647V22.937C9.20003 23.1444 9.2774 23.3449 9.41893 23.4945C9.56044 23.6442 9.75459 23.7309 9.95889 23.7356H13.0386C13.1407 23.7348 13.2417 23.7135 13.3357 23.6728C13.4297 23.6322 13.5148 23.573 13.5861 23.4987C13.6575 23.4245 13.7136 23.3366 13.7512 23.2402C13.7889 23.1437 13.8073 23.0407 13.8055 22.937V19.7647C13.8037 19.6616 13.8219 19.5592 13.859 19.4633C13.8962 19.3674 13.9516 19.2799 14.0221 19.2057C14.0926 19.1316 14.1768 19.0723 14.2699 19.0311C14.363 18.99 14.4631 18.9679 14.5646 18.9661H17.6404C17.7425 18.9669 17.8435 18.9882 17.9375 19.0289C18.0315 19.0695 18.1166 19.1287 18.1879 19.2029C18.2593 19.2772 18.3154 19.3651 18.353 19.4615C18.3907 19.5579 18.4091 19.661 18.4073 19.7647V27.6765C18.4091 27.7796 18.391 27.882 18.3538 27.9779C18.3166 28.0738 18.2612 28.1613 18.1907 28.2355C18.1202 28.3096 18.036 28.3689 17.943 28.4101C17.8499 28.4512 17.7497 28.4733 17.6482 28.4751H5.36889C5.26681 28.4743 5.1659 28.453 5.07202 28.4123C4.97813 28.3716 4.89314 28.3124 4.82197 28.2381C4.75081 28.1638 4.69488 28.0759 4.65744 27.9795C4.62001 27.8831 4.6018 27.7801 4.60389 27.6765V24.4982C4.60571 24.3952 4.58752 24.2928 4.55036 24.1969C4.5132 24.101 4.45779 24.0134 4.38729 23.9393C4.3168 23.8651 4.23261 23.8058 4.13952 23.7647C4.04644 23.7236 3.94629 23.7015 3.84479 23.6996H0.767091C0.664926 23.7004 0.563925 23.7217 0.469932 23.7624C0.375939 23.8031 0.290819 23.8622 0.219496 23.9365C0.148172 24.0107 0.0920601 24.0986 0.0544058 24.195C0.0167515 24.2915 -0.00169788 24.3945 0.000124771 24.4982V32.4141C-0.0016992 32.5171 0.0164904 32.6195 0.0536545 32.7154C0.0908187 32.8113 0.146229 32.8988 0.216721 32.973C0.287214 33.0471 0.371406 33.1065 0.46449 33.1476C0.557574 33.1887 0.657726 33.2108 0.759225 33.2126H22.252C22.3541 33.2119 22.4551 33.1905 22.5491 33.1499C22.6431 33.1092 22.7283 33.05 22.7996 32.9758C22.8709 32.9015 22.927 32.8136 22.9647 32.7172C23.0023 32.6208 23.0208 32.5178 23.0189 32.4141V15.0172C23.0208 14.9141 23.0026 14.8117 22.9654 14.7158C22.9283 14.6199 22.8728 14.5324 22.8024 14.4582C22.7319 14.3841 22.6477 14.3247 22.5546 14.2836C22.4615 14.2425 22.3613 14.2204 22.2598 14.2186H14.5902C14.4889 14.2181 14.3888 14.1973 14.2955 14.1575C14.2021 14.1177 14.1174 14.0596 14.0462 13.9865C13.975 13.9135 13.9187 13.8269 13.8804 13.7318C13.8421 13.6366 13.8227 13.5348 13.8232 13.432V10.2776C13.825 10.1746 13.8069 10.0722 13.7697 9.97629C13.7325 9.88039 13.6771 9.79286 13.6066 9.71871C13.5361 9.64455 13.4519 9.58521 13.3589 9.5441C13.2658 9.50298 13.1656 9.48088 13.0641 9.47906H9.97069C9.86861 9.47983 9.7677 9.50117 9.67382 9.54185C9.57993 9.58253 9.49494 9.64173 9.42377 9.71602C9.3526 9.79031 9.29668 9.87821 9.25924 9.97462C9.22181 10.071 9.2036 10.174 9.20569 10.2776V13.436C9.20751 13.539 9.18932 13.6414 9.15216 13.7373C9.11499 13.8332 9.05958 13.9207 8.98909 13.9949C8.9186 14.0691 8.83441 14.1284 8.74132 14.1695C8.64824 14.2106 8.54809 14.2327 8.44659 14.2346H5.36889C5.26681 14.2338 5.1659 14.2124 5.07202 14.1718C4.97813 14.1311 4.89314 14.0719 4.82197 13.9976C4.75081 13.9233 4.69488 13.8354 4.65744 13.739C4.62001 13.6426 4.6018 13.5396 4.60389 13.436V5.5361C4.6002 5.32868 4.67757 5.12822 4.81909 4.97857C4.96061 4.82891 5.15476 4.74225 5.35906 4.73753H17.6423C17.7445 4.73831 17.8455 4.75964 17.9395 4.80029C18.0335 4.84095 18.1186 4.90012 18.1899 4.97438C18.2612 5.04864 18.3173 5.13652 18.355 5.23294C18.3927 5.32936 18.4111 5.4324 18.4093 5.5361V8.69446C18.4056 8.90188 18.483 9.10234 18.6245 9.252C18.766 9.40165 18.9602 9.48831 19.1644 9.49303H22.252C22.3541 9.49226 22.4551 9.47092 22.5491 9.43027C22.6431 9.38962 22.7283 9.33045 22.7996 9.25618C22.8709 9.18192 22.927 9.09404 22.9647 8.99762C23.0023 8.9012 23.0208 8.79816 23.0189 8.69446V0.798573C23.0208 0.695533 23.0026 0.593139 22.9654 0.497238C22.9283 0.401336 22.8728 0.313807 22.8024 0.239649C22.7319 0.165492 22.6477 0.106159 22.5546 0.065039C22.4615 0.0239194 22.3613 0.00181896 22.2598 0" fill="#B22B26"/>
<path fill-rule="evenodd" clip-rule="evenodd" d="M68.2701 0H65.2022C65.0999 0.000507925 64.9988 0.0216579 64.9047 0.0622186C64.8106 0.102779 64.7254 0.16194 64.654 0.236258C64.5826 0.310575 64.5265 0.398564 64.489 0.495102C64.4514 0.591641 64.4331 0.694799 64.4352 0.798573V22.919C64.4315 23.1265 64.5089 23.3269 64.6504 23.4766C64.7919 23.6262 64.9861 23.7129 65.1904 23.7176H68.2701C68.3722 23.7168 68.4732 23.6955 68.5672 23.6549C68.6612 23.6142 68.7463 23.555 68.8176 23.4808C68.889 23.4065 68.9451 23.3186 68.9827 23.2222C69.0204 23.1258 69.0388 23.0227 69.037 22.919V0.798573C69.0388 0.695534 69.0207 0.593139 68.9835 0.497238C68.9463 0.401336 68.8909 0.313807 68.8204 0.239649C68.7499 0.165492 68.6657 0.106159 68.5727 0.065039C68.4796 0.0239194 68.3794 0.00181896 68.2779 0" fill="#B22B26"/>
<path fill-rule="evenodd" clip-rule="evenodd" d="M59.0664 0H55.9986C55.8962 0.00051218 55.795 0.0216499 55.7008 0.0621867C55.6066 0.102723 55.5212 0.161852 55.4497 0.236142C55.3781 0.310431 55.3219 0.398403 55.2841 0.494951C55.2463 0.5915 55.2278 0.694703 55.2296 0.798573V32.3981C55.2278 32.5011 55.246 32.6035 55.2831 32.6994C55.3203 32.7953 55.3757 32.8829 55.4462 32.957C55.5167 33.0312 55.6009 33.0905 55.694 33.1316C55.7871 33.1728 55.8872 33.1949 55.9887 33.1967H77.4834C77.5844 33.1964 77.6844 33.176 77.7775 33.1365C77.8707 33.097 77.9554 33.0393 78.0266 32.9666C78.0978 32.894 78.1542 32.8078 78.1926 32.7129C78.231 32.6181 78.2507 32.5166 78.2504 32.4141V0.798573C78.2525 0.695795 78.2346 0.593606 78.1978 0.497844C78.161 0.402082 78.1059 0.314624 78.0358 0.240465C77.9657 0.166307 77.8818 0.106901 77.7891 0.0656409C77.6963 0.0243812 77.5965 0.00207612 77.4952 0L74.4057 0C74.3036 0.000775244 74.2026 0.0221069 74.1086 0.0627611C74.0146 0.103415 73.9295 0.162585 73.8581 0.236848C73.7868 0.311111 73.7307 0.398993 73.6931 0.495411C73.6554 0.59183 73.637 0.69487 73.6388 0.798573V27.6606C73.6406 27.7636 73.6224 27.866 73.5852 27.9619C73.5481 28.0578 73.4927 28.1453 73.4222 28.2195C73.3517 28.2936 73.2675 28.353 73.1744 28.3941C73.0813 28.4352 72.9812 28.4573 72.8797 28.4591H60.6003C60.4991 28.4586 60.399 28.4379 60.3056 28.398C60.2123 28.3582 60.1276 28.3001 60.0564 28.2271C59.9852 28.1541 59.9288 28.0675 59.8906 27.9723C59.8523 27.8772 59.8329 27.7753 59.8334 27.6725V0.798573C59.8352 0.695534 59.817 0.593139 59.7799 0.497238C59.7427 0.401336 59.6873 0.313807 59.6168 0.239649C59.5463 0.165492 59.4621 0.106159 59.369 0.065039C59.2759 0.0239194 59.1758 0.00181896 59.0743 0" fill="#B22B26"/>
<path fill-rule="evenodd" clip-rule="evenodd" d="M40.6513 9.49347H37.5913C37.4891 9.49424 37.3881 9.51557 37.2942 9.55623C37.2002 9.59688 37.115 9.65605 37.0437 9.73031C36.9724 9.80458 36.9163 9.89246 36.8786 9.98888C36.841 10.0853 36.8225 10.1883 36.8243 10.292V22.9394C36.8225 23.0425 36.8407 23.1449 36.8779 23.2408C36.915 23.3367 36.9704 23.4242 37.0409 23.4984C37.1114 23.5725 37.1956 23.6319 37.2887 23.673C37.3818 23.7141 37.4819 23.7362 37.5834 23.738H40.6592C40.7602 23.7377 40.8601 23.7173 40.9533 23.6778C41.0465 23.6384 41.1311 23.5806 41.2023 23.508C41.2735 23.4353 41.33 23.3491 41.3684 23.2543C41.4068 23.1595 41.4264 23.0579 41.4261 22.9554V10.2781C41.4285 10.1752 41.4108 10.0729 41.3741 9.97704C41.3373 9.88116 41.2823 9.79359 41.2121 9.71938C41.1419 9.64517 41.058 9.58577 40.9651 9.5446C40.8723 9.50343 40.7723 9.48131 40.671 9.47949H40.6592" fill="#B22B26"/>
<path fill-rule="evenodd" clip-rule="evenodd" d="M51.2963 37.2119H43.4064C43.192 37.2119 42.9865 37.2984 42.8349 37.4522C42.6833 37.6061 42.5981 37.8148 42.5981 38.0324V46.1619C42.5979 46.2698 42.6186 46.3768 42.6591 46.4765C42.6996 46.5763 42.7591 46.667 42.8342 46.7434C42.9093 46.8198 42.9985 46.8804 43.0966 46.9218C43.1948 46.9632 43.3001 46.9844 43.4064 46.9844H51.2963C51.4028 46.9847 51.5083 46.9636 51.6067 46.9224C51.7051 46.8811 51.7945 46.8206 51.8698 46.7441C51.9451 46.6677 52.0048 46.5769 52.0454 46.477C52.086 46.3771 52.1068 46.27 52.1066 46.1619V38.0424C52.1068 37.9343 52.086 37.8273 52.0454 37.7274C52.0048 37.6274 51.9451 37.5367 51.8698 37.4602C51.7945 37.3838 51.7051 37.3232 51.6067 37.282C51.5083 37.2407 51.4028 37.2196 51.2963 37.2199" fill="#B22B26"/>
<path fill-rule="evenodd" clip-rule="evenodd" d="M8.68483 37.2197H0.798841C0.588071 37.226 0.387998 37.3154 0.241117 37.469C0.0942364 37.6225 0.01212 37.8282 0.0122094 38.0423V46.1697C0.0119501 46.2778 0.0327303 46.3849 0.0733563 46.4848C0.113982 46.5847 0.173654 46.6755 0.248942 46.7519C0.324231 46.8284 0.413653 46.8889 0.512072 46.9302C0.610491 46.9714 0.715967 46.9925 0.82244 46.9923H8.71039C8.8167 46.9923 8.92197 46.971 9.02016 46.9296C9.11835 46.8882 9.20754 46.8276 9.28262 46.7512C9.3577 46.6748 9.41719 46.5841 9.4577 46.4843C9.4982 46.3846 9.51892 46.2777 9.51866 46.1697V38.0423C9.51892 37.9343 9.4982 37.8274 9.4577 37.7276C9.41719 37.6279 9.3577 37.5372 9.28262 37.4608C9.20754 37.3844 9.11835 37.3237 9.02016 37.2824C8.92197 37.241 8.8167 37.2197 8.71039 37.2197" fill="#B22B26"/>
<path fill-rule="evenodd" clip-rule="evenodd" d="M160.17 37.2197H133.344C133.133 37.226 132.933 37.3154 132.787 37.469C132.64 37.6225 132.558 37.8282 132.558 38.0423V46.1697C132.558 46.3838 132.64 46.5895 132.787 46.743C132.933 46.8966 133.133 46.986 133.344 46.9923H141.517C141.624 46.9923 141.729 46.971 141.827 46.9297C141.926 46.8883 142.015 46.8277 142.09 46.7513C142.166 46.675 142.225 46.5843 142.266 46.4845C142.307 46.3847 142.328 46.2777 142.328 46.1697V41.0609C142.327 40.8468 142.41 40.6411 142.556 40.4876C142.703 40.334 142.903 40.2446 143.114 40.2383H150.847C151.061 40.2389 151.267 40.3258 151.418 40.48C151.57 40.6341 151.655 40.8431 151.655 41.0609V46.1697C151.655 46.3838 151.737 46.5895 151.884 46.743C152.031 46.8966 152.231 46.986 152.442 46.9923H160.206C160.417 46.986 160.617 46.8966 160.763 46.743C160.91 46.5895 160.992 46.3838 160.992 46.1697V38.0423C160.992 37.8282 160.91 37.6225 160.763 37.469C160.617 37.3154 160.417 37.226 160.206 37.2197" fill="#B22B26"/>
<path fill-rule="evenodd" clip-rule="evenodd" d="M151.034 0H147.966C147.865 0.000523015 147.764 0.0212839 147.671 0.0610973C147.578 0.100911 147.493 0.158997 147.422 0.232039C147.351 0.305081 147.294 0.391649 147.256 0.4868C147.218 0.581951 147.198 0.683821 147.199 0.786594V8.69646C147.195 8.90388 147.273 9.10434 147.414 9.25399C147.556 9.40365 147.75 9.49031 147.954 9.49503H151.034C151.136 9.49426 151.237 9.47292 151.331 9.43227C151.425 9.39162 151.51 9.33245 151.581 9.25818C151.653 9.18392 151.709 9.09604 151.746 8.99962C151.784 8.9032 151.802 8.80016 151.801 8.69646V0.798573C151.802 0.69487 151.784 0.59183 151.746 0.495411C151.709 0.398993 151.653 0.311111 151.581 0.236848C151.51 0.162585 151.425 0.103415 151.331 0.0627611C151.237 0.0221069 151.136 0.000775244 151.034 0Z" fill="#B22B26"/>
<path fill-rule="evenodd" clip-rule="evenodd" d="M49.8549 0H28.3799C28.2777 0.000775244 28.1767 0.0221069 28.0827 0.0627611C27.9887 0.103415 27.9036 0.162585 27.8323 0.236848C27.761 0.311111 27.7049 0.398993 27.6672 0.495411C27.6295 0.59183 27.6111 0.69487 27.6129 0.798573V32.3981C27.6111 32.5011 27.6293 32.6035 27.6664 32.6994C27.7036 32.7953 27.759 32.8829 27.8295 32.957C27.9 33.0312 27.9842 33.0905 28.0773 33.1316C28.1704 33.1728 28.2705 33.1949 28.372 33.1967H40.6513C40.7523 33.1964 40.8523 33.176 40.9455 33.1365C41.0386 33.097 41.1233 33.0393 41.1945 32.9666C41.2657 32.894 41.3221 32.8078 41.3605 32.7129C41.3989 32.6181 41.4186 32.5166 41.4183 32.4141V29.2377C41.4207 29.1349 41.403 29.0326 41.3662 28.9367C41.3295 28.8408 41.2745 28.7533 41.2043 28.6791C41.1341 28.6049 41.0502 28.5455 40.9573 28.5043C40.8644 28.4631 40.7645 28.441 40.6631 28.4392H32.9817C32.777 28.4376 32.5814 28.3537 32.4376 28.2058C32.2938 28.058 32.2137 27.8583 32.2147 27.6506V5.53611C32.2129 5.43307 32.2311 5.33067 32.2682 5.23477C32.3054 5.13887 32.3608 5.05134 32.4313 4.97718C32.5018 4.90303 32.586 4.84369 32.6791 4.80257C32.7722 4.76145 32.8723 4.73935 32.9738 4.73753H45.261C45.362 4.73779 45.4619 4.75824 45.5551 4.79772C45.6483 4.83719 45.7329 4.89491 45.8042 4.96758C45.8754 5.04025 45.9318 5.12645 45.9702 5.22126C46.0086 5.31607 46.0282 5.41762 46.028 5.52013V22.917C46.0262 23.0201 46.0443 23.1225 46.0815 23.2184C46.1187 23.3143 46.1741 23.4018 46.2446 23.476C46.3151 23.5501 46.3993 23.6095 46.4923 23.6506C46.5854 23.6917 46.6856 23.7138 46.7871 23.7156H49.8628C49.9638 23.7154 50.0637 23.6949 50.1569 23.6554C50.2501 23.616 50.3347 23.5582 50.406 23.4856C50.4772 23.4129 50.5336 23.3267 50.572 23.2319C50.6104 23.1371 50.63 23.0355 50.6298 22.933V0.798573C50.6319 0.695795 50.614 0.593606 50.5772 0.497844C50.5403 0.402082 50.4853 0.314624 50.4152 0.240465C50.345 0.166307 50.2612 0.106901 50.1684 0.0656409C50.0757 0.0243812 49.9758 0.00207612 49.8746 0L49.8648 0" fill="#B22B26"/>
<path fill-rule="evenodd" clip-rule="evenodd" d="M85.9124 37.2273H65.4875C65.3812 37.2273 65.2759 37.2486 65.1777 37.29C65.0795 37.3313 64.9903 37.3919 64.9152 37.4684C64.8402 37.5448 64.7807 37.6355 64.7402 37.7352C64.6997 37.835 64.6789 37.9419 64.6792 38.0499V46.1793C64.6792 46.3969 64.7644 46.6056 64.9159 46.7595C65.0675 46.9134 65.2731 46.9999 65.4875 46.9999H73.9044C74.1188 46.9999 74.3244 46.9134 74.476 46.7595C74.6275 46.6056 74.7127 46.3969 74.7127 46.1793V39.4414C74.7127 39.3334 74.7337 39.2266 74.7744 39.1269C74.8151 39.0272 74.8749 38.9367 74.9501 38.8605C75.0254 38.7842 75.1147 38.7238 75.213 38.6827C75.3113 38.6416 75.4166 38.6206 75.5229 38.6208H81.7295C81.94 38.6266 82.1401 38.7155 82.287 38.8688C82.434 39.0221 82.5162 39.2275 82.5161 39.4414V43.0849C82.5164 43.2142 82.5471 43.3416 82.6056 43.4565C82.6641 43.5714 82.7487 43.6705 82.8524 43.7457L87.0727 46.8322C87.2069 46.9263 87.3657 46.9777 87.5289 46.9799H96.1819C96.3085 46.9799 96.4333 46.9489 96.5456 46.8894C96.6579 46.83 96.7544 46.7439 96.8269 46.6385C96.9482 46.4626 96.997 46.2456 96.9628 46.0337C96.9287 45.8218 96.8142 45.6319 96.644 45.5045L93.1632 42.9531C94.1186 42.7979 95.0198 42.3995 95.7826 41.7952C96.025 41.6271 96.2277 41.4065 96.3759 41.1493C96.5242 40.8921 96.6144 40.6047 96.6401 40.3078C96.6401 39.2524 95.3946 38.4538 92.9036 37.9121C90.6168 37.4075 88.2795 37.1777 85.9399 37.2273" fill="#B22B26"/>
<path fill-rule="evenodd" clip-rule="evenodd" d="M118.353 37.2277H110.453C110.242 37.2339 110.042 37.3234 109.895 37.4769C109.749 37.6305 109.666 37.8362 109.667 38.0502V46.1797C109.667 46.3934 109.749 46.5986 109.896 46.7517C110.043 46.9049 110.243 46.994 110.453 47.0002H118.345C118.559 47.0002 118.765 46.9138 118.917 46.7599C119.068 46.606 119.153 46.3973 119.153 46.1797V38.0423C119.154 37.9343 119.133 37.8274 119.092 37.7276C119.052 37.6279 118.992 37.5372 118.917 37.4608C118.842 37.3844 118.753 37.3237 118.655 37.2824C118.557 37.241 118.451 37.2197 118.345 37.2197" fill="#B22B26"/>
<path fill-rule="evenodd" clip-rule="evenodd" d="M28.2695 37.2199H17.4533C17.29 37.2211 17.1309 37.2726 16.997 37.3676L15.6204 38.3659C15.5176 38.4425 15.434 38.5426 15.3762 38.6581C15.3185 38.7735 15.2883 38.9012 15.2881 39.0307V45.02C15.288 45.1488 15.3177 45.2759 15.3747 45.391C15.4317 45.5061 15.5146 45.606 15.6165 45.6828L17.1662 46.8187C17.298 46.9184 17.458 46.9723 17.6224 46.9725H28.2537C28.3811 46.9724 28.5065 46.9409 28.6192 46.8807C28.7319 46.8206 28.8285 46.7335 28.9008 46.6271C29.023 46.4519 29.0727 46.235 29.0393 46.023C29.0058 45.811 28.8918 45.6208 28.7218 45.4931L24.944 42.778C24.8688 42.722 24.8025 42.6547 24.7473 42.5783C24.6276 42.4014 24.5812 42.1838 24.618 41.9725C24.6548 41.7611 24.7718 41.5729 24.944 41.4483L28.712 38.6993C28.8498 38.5973 28.9525 38.4538 29.0053 38.2891C29.0581 38.1244 29.0584 37.947 29.0061 37.7822C28.9538 37.6174 28.8516 37.4735 28.714 37.3711C28.5765 37.2687 28.4106 37.213 28.24 37.2119" fill="#B22B26"/>
<path fill-rule="evenodd" clip-rule="evenodd" d="M141.826 0H138.758C138.656 0.00051218 138.555 0.0216499 138.461 0.0621867C138.366 0.102723 138.281 0.161852 138.209 0.236142C138.138 0.310431 138.082 0.398403 138.044 0.494951C138.006 0.5915 137.988 0.694703 137.989 0.798573V32.3901C137.988 32.4932 138.006 32.5955 138.043 32.6914C138.08 32.7873 138.135 32.8749 138.206 32.949C138.276 33.0232 138.361 33.0825 138.454 33.1236C138.547 33.1648 138.647 33.1869 138.748 33.1887H141.826C141.928 33.1879 142.029 33.1666 142.123 33.1259C142.217 33.0853 142.302 33.0261 142.374 32.9518C142.445 32.8776 142.501 32.7897 142.539 32.6933C142.577 32.5969 142.595 32.4938 142.593 32.3901V19.7487C142.589 19.5413 142.667 19.3408 142.808 19.1912C142.95 19.0415 143.144 18.9548 143.348 18.9501H155.632C155.734 18.9509 155.835 18.9722 155.929 19.0129C156.023 19.0535 156.108 19.1127 156.179 19.187C156.25 19.2612 156.307 19.3491 156.344 19.4455C156.382 19.542 156.4 19.645 156.399 19.7487V32.4061C156.397 32.5091 156.415 32.6115 156.452 32.7074C156.489 32.8033 156.545 32.8909 156.615 32.965C156.686 33.0392 156.77 33.0985 156.863 33.1396C156.956 33.1807 157.056 33.2028 157.158 33.2047H160.233C160.334 33.2044 160.434 33.1839 160.527 33.1445C160.621 33.105 160.705 33.0473 160.777 32.9746C160.848 32.9019 160.904 32.8157 160.943 32.7209C160.981 32.6261 161.001 32.5246 161 32.4221V0.798573C161.002 0.694966 160.984 0.59197 160.947 0.495563C160.909 0.399155 160.853 0.311256 160.782 0.236965C160.711 0.162674 160.626 0.103472 160.532 0.0627939C160.438 0.0221156 160.337 0.000771433 160.235 0L157.166 0C157.063 0.000775244 156.962 0.0221069 156.868 0.0627611C156.774 0.103415 156.689 0.162585 156.618 0.236848C156.547 0.311111 156.49 0.398993 156.453 0.495411C156.415 0.59183 156.397 0.69487 156.399 0.798573V13.43C156.4 13.533 156.382 13.6354 156.345 13.7313C156.308 13.8272 156.252 13.9148 156.182 13.9889C156.111 14.0631 156.027 14.1224 155.934 14.1635C155.841 14.2047 155.741 14.2268 155.639 14.2286H143.364C143.263 14.228 143.163 14.2073 143.069 14.1675C142.976 14.1277 142.891 14.0696 142.82 13.9965C142.749 13.9235 142.693 13.8369 142.654 13.7418C142.616 13.6466 142.597 13.5447 142.597 13.442V0.798573C142.599 0.695037 142.581 0.592158 142.543 0.49587C142.505 0.399582 142.45 0.311788 142.378 0.237552C142.307 0.163315 142.222 0.104105 142.129 0.0633335C142.035 0.0225623 141.934 0.00103745 141.832 0" fill="#B22B26"/>
<path fill-rule="evenodd" clip-rule="evenodd" d="M151.034 23.6994H147.966C147.865 23.6999 147.764 23.7207 147.671 23.7605C147.578 23.8003 147.493 23.8584 147.422 23.9314C147.351 24.0045 147.294 24.091 147.256 24.1862C147.218 24.2813 147.198 24.3832 147.199 24.486V32.3978C147.195 32.6053 147.273 32.8057 147.414 32.9554C147.556 33.105 147.75 33.1917 147.954 33.1964H151.034C151.136 33.1956 151.237 33.1743 151.331 33.1337C151.425 33.093 151.51 33.0338 151.581 32.9596C151.653 32.8853 151.709 32.7974 151.746 32.701C151.784 32.6046 151.802 32.5015 151.801 32.3978V24.49C151.802 24.3869 151.784 24.2845 151.747 24.1886C151.71 24.0927 151.655 24.0052 151.584 23.9311C151.514 23.8569 151.429 23.7976 151.336 23.7564C151.243 23.7153 151.143 23.6932 151.042 23.6914" fill="#B22B26"/>
<path fill-rule="evenodd" clip-rule="evenodd" d="M132.621 0H111.146C111.043 0.000775244 110.942 0.0221069 110.848 0.0627611C110.754 0.103415 110.669 0.162585 110.598 0.236848C110.527 0.311111 110.47 0.398993 110.433 0.495411C110.395 0.59183 110.377 0.69487 110.379 0.798573V18.1795C110.377 18.2825 110.395 18.3849 110.432 18.4808C110.469 18.5767 110.525 18.6643 110.595 18.7384C110.666 18.8126 110.75 18.8719 110.843 18.913C110.936 18.9542 111.036 18.9763 111.138 18.9781H118.807C119.011 18.9802 119.205 19.0642 119.348 19.2116C119.491 19.3591 119.57 19.558 119.568 19.7647V22.941C119.567 23.044 119.585 23.1464 119.622 23.2423C119.659 23.3382 119.714 23.4258 119.785 23.4999C119.855 23.5741 119.94 23.6334 120.033 23.6745C120.126 23.7157 120.226 23.7378 120.327 23.7396H123.403C123.504 23.7393 123.604 23.7189 123.697 23.6794C123.791 23.6399 123.875 23.5822 123.946 23.5095C124.018 23.4369 124.074 23.3507 124.112 23.2558C124.151 23.161 124.17 23.0595 124.17 22.957V19.7647C124.168 19.6616 124.187 19.5592 124.224 19.4633C124.261 19.3674 124.316 19.2799 124.387 19.2058C124.457 19.1316 124.541 19.0723 124.635 19.0311C124.728 18.99 124.828 18.9679 124.929 18.9661H128.025C128.126 18.9664 128.226 18.9868 128.319 19.0263C128.412 19.0658 128.497 19.1235 128.568 19.1961C128.639 19.2688 128.695 19.355 128.734 19.4498C128.772 19.5446 128.792 19.6462 128.792 19.7487V27.6666C128.792 27.7693 128.773 27.8712 128.735 27.9665C128.697 28.0618 128.641 28.1485 128.57 28.2217C128.499 28.2949 128.414 28.3532 128.321 28.3933C128.228 28.4333 128.128 28.4544 128.027 28.4551H115.755C115.551 28.4536 115.355 28.3696 115.211 28.2218C115.067 28.074 114.987 27.8743 114.988 27.6666V24.4902C114.991 24.3874 114.973 24.2851 114.936 24.1892C114.899 24.0933 114.844 24.0058 114.774 23.9315C114.704 23.8573 114.62 23.7979 114.527 23.7568C114.434 23.7156 114.334 23.6935 114.233 23.6917H111.153C111.051 23.6924 110.95 23.7138 110.856 23.7544C110.762 23.7951 110.677 23.8542 110.606 23.9285C110.534 24.0028 110.478 24.0907 110.441 24.1871C110.403 24.2835 110.385 24.3865 110.386 24.4902V32.4061C110.385 32.5091 110.403 32.6115 110.44 32.7074C110.477 32.8033 110.533 32.8909 110.603 32.965C110.673 33.0392 110.758 33.0985 110.851 33.1396C110.944 33.1807 111.044 33.2028 111.146 33.2047H132.628C132.729 33.2044 132.829 33.1839 132.923 33.1445C133.016 33.105 133.1 33.0473 133.172 32.9746C133.243 32.9019 133.299 32.8157 133.338 32.7209C133.376 32.6261 133.396 32.5246 133.395 32.4221V15.0092C133.397 14.9061 133.379 14.8037 133.342 14.7078C133.305 14.6119 133.249 14.5244 133.179 14.4503C133.108 14.3761 133.024 14.3168 132.931 14.2756C132.838 14.2345 132.738 14.2124 132.636 14.2106H124.967C124.864 14.2098 124.763 14.1885 124.669 14.1478C124.575 14.1072 124.49 14.048 124.419 13.9738C124.348 13.8995 124.292 13.8116 124.254 13.7152C124.216 13.6188 124.198 13.5157 124.2 13.412V10.2696C124.202 10.1668 124.184 10.0645 124.148 9.96862C124.111 9.87274 124.056 9.78518 123.986 9.71096C123.915 9.63675 123.832 9.57735 123.739 9.53618C123.646 9.49502 123.546 9.47289 123.445 9.47107H120.355C120.253 9.47185 120.152 9.49318 120.058 9.53383C119.964 9.57449 119.879 9.63366 119.807 9.70792C119.736 9.78218 119.68 9.87007 119.642 9.96649C119.605 10.0629 119.586 10.1659 119.588 10.2696V13.438C119.59 13.5408 119.573 13.6431 119.536 13.739C119.499 13.8349 119.444 13.9225 119.374 13.9967C119.304 14.0709 119.22 14.1303 119.127 14.1714C119.034 14.2126 118.934 14.2347 118.833 14.2366H115.755C115.653 14.2358 115.552 14.2144 115.458 14.1738C115.364 14.1331 115.279 14.074 115.208 13.9997C115.136 13.9254 115.08 13.8376 115.042 13.7411C115.005 13.6447 114.986 13.5417 114.988 13.438V5.53012C114.986 5.42708 115.005 5.32468 115.042 5.22878C115.079 5.13288 115.134 5.04535 115.205 4.97119C115.275 4.89704 115.359 4.8377 115.453 4.79658C115.546 4.75546 115.646 4.73336 115.747 4.73154H128.025C128.126 4.73181 128.226 4.75226 128.319 4.79173C128.412 4.8312 128.497 4.88892 128.568 4.96159C128.639 5.03426 128.695 5.12046 128.734 5.21527C128.772 5.31008 128.792 5.41163 128.792 5.51415V8.70844C128.79 8.81147 128.808 8.91387 128.845 9.00977C128.882 9.10567 128.938 9.1932 129.008 9.26736C129.079 9.34152 129.163 9.40085 129.256 9.44197C129.349 9.48309 129.449 9.50519 129.551 9.50701H132.626C132.727 9.50675 132.827 9.4863 132.921 9.44683C133.014 9.40735 133.098 9.34964 133.17 9.27696C133.241 9.20429 133.297 9.11809 133.336 9.02328C133.374 8.92848 133.394 8.82692 133.393 8.72441V0.798573C133.396 0.695133 133.377 0.592299 133.34 0.496022C133.303 0.399745 133.247 0.311934 133.176 0.23767C133.105 0.163406 133.02 0.104163 132.927 0.0633672C132.833 0.0225718 132.732 0.00103408 132.63 0" fill="#B22B26"/>
<path fill-rule="evenodd" clip-rule="evenodd" d="M95.814 18.9662H92.7363C92.6343 18.9669 92.5334 18.9883 92.4395 19.029C92.3456 19.0696 92.2606 19.1288 92.1894 19.2031C92.1183 19.2774 92.0623 19.3653 92.0249 19.4617C91.9875 19.5581 91.9693 19.6611 91.9714 19.7647V32.4161C91.9677 32.6235 92.045 32.824 92.1866 32.9737C92.3281 33.1233 92.5222 33.21 92.7265 33.2147H95.8062C95.9083 33.2139 96.0093 33.1926 96.1033 33.1519C96.1973 33.1113 96.2825 33.0521 96.3538 32.9779C96.4251 32.9036 96.4812 32.8157 96.5189 32.7193C96.5565 32.6229 96.575 32.5198 96.5731 32.4161V19.7488C96.575 19.6457 96.5568 19.5433 96.5196 19.4474C96.4825 19.3515 96.427 19.264 96.3566 19.1898C96.2861 19.1157 96.2019 19.0564 96.1088 19.0152C96.0157 18.9741 95.9155 18.952 95.814 18.9502" fill="#B22B26"/>
<path fill-rule="evenodd" clip-rule="evenodd" d="M47.3418 30.1123C47.3145 30.1119 47.2878 30.1197 47.265 30.1348C47.2421 30.1498 47.2242 30.1714 47.2134 30.1967C47.2026 30.2221 47.1995 30.2502 47.2044 30.2774C47.2094 30.3045 47.2221 30.3296 47.2411 30.3494C47.2601 30.3693 47.2844 30.3829 47.311 30.3887C47.3376 30.3945 47.3654 30.3921 47.3907 30.3819C47.416 30.3717 47.4377 30.3541 47.4532 30.3314C47.4686 30.3086 47.4771 30.2817 47.4775 30.2541C47.477 30.2175 47.4626 30.1825 47.4373 30.1565C47.412 30.1305 47.3778 30.1153 47.3418 30.1143" fill="#B22B26"/>
<path fill-rule="evenodd" clip-rule="evenodd" d="M46.854 30.1123C46.8267 30.1119 46.8 30.1197 46.7772 30.1348C46.7543 30.1498 46.7364 30.1714 46.7256 30.1967C46.7148 30.2221 46.7117 30.2502 46.7166 30.2774C46.7216 30.3045 46.7343 30.3296 46.7533 30.3494C46.7723 30.3693 46.7966 30.3829 46.8232 30.3887C46.8499 30.3945 46.8776 30.3921 46.9029 30.3819C46.9282 30.3717 46.9499 30.3541 46.9654 30.3314C46.9808 30.3086 46.9893 30.2817 46.9897 30.2541C46.9892 30.2175 46.9748 30.1825 46.9495 30.1565C46.9242 30.1305 46.89 30.1153 46.854 30.1143" fill="#B22B26"/>
<path fill-rule="evenodd" clip-rule="evenodd" d="M52.091 27.7168H47.4342C46.8982 27.7213 46.3746 27.8807 45.9245 28.1761C45.4744 28.4715 45.1164 28.8909 44.8923 29.3852C44.6683 29.8795 44.5874 30.4284 44.6592 30.9676C44.731 31.5068 44.9525 32.0142 45.2978 32.4303C45.6431 32.8465 46.0979 33.1544 46.6091 33.3179C47.1203 33.4814 47.6668 33.4939 48.1847 33.3538C48.7027 33.2138 49.1706 32.927 49.534 32.5269C49.8973 32.1269 50.141 31.6302 50.2366 31.0948H49.208L49.1844 31.1706C49.072 31.4784 48.8787 31.7489 48.6254 31.953C48.3722 32.1571 48.0688 32.2868 47.748 32.3282C47.4273 32.3696 47.1015 32.3209 46.8061 32.1876C46.5106 32.0543 46.2568 31.8414 46.0722 31.572C45.8875 31.3025 45.7791 30.9869 45.7586 30.6594C45.7382 30.3318 45.8065 30.0048 45.9562 29.7139C46.1059 29.4229 46.3312 29.1792 46.6077 29.0091C46.8842 28.839 47.2013 28.749 47.5246 28.749H50.3742L49.7036 29.9788H50.8521L52.091 27.7168Z" fill="#B22B26"/>
<path fill-rule="evenodd" clip-rule="evenodd" d="M105.785 32.3901V0.798573C105.786 0.694703 105.768 0.5915 105.73 0.494951C105.692 0.398403 105.636 0.310431 105.565 0.236142C105.493 0.161852 105.408 0.102723 105.313 0.0621867C105.219 0.0216499 105.118 0.00051218 105.016 0L83.5327 0C83.4306 0.000775244 83.3296 0.0221069 83.2356 0.0627611C83.1416 0.103415 83.0564 0.162585 82.9851 0.236848C82.9138 0.311111 82.8577 0.398993 82.82 0.495411C82.7824 0.59183 82.7639 0.69487 82.7657 0.798573V32.3901C82.7639 32.4932 82.7821 32.5955 82.8193 32.6914C82.8564 32.7873 82.9119 32.8749 82.9824 32.949C83.0528 33.0232 83.137 33.0825 83.2301 33.1236C83.3232 33.1648 83.4234 33.1869 83.5249 33.1887H86.6006C86.7029 33.1882 86.8041 33.167 86.8983 33.1265C86.9926 33.086 87.0779 33.0268 87.1495 32.9525C87.221 32.8783 87.2773 32.7903 87.3151 32.6937C87.3528 32.5972 87.3713 32.494 87.3695 32.3901V15.0092C87.3677 14.9061 87.3859 14.8037 87.423 14.7078C87.4602 14.6119 87.5156 14.5244 87.5861 14.4503C87.6566 14.3761 87.7408 14.3168 87.8339 14.2756C87.927 14.2345 88.0271 14.2124 88.1286 14.2106H100.408C100.51 14.2116 100.611 14.2332 100.705 14.2739C100.799 14.3146 100.884 14.3738 100.955 14.448C101.026 14.5222 101.082 14.61 101.12 14.7063C101.158 14.8026 101.176 14.9055 101.175 15.0092V32.3981C101.171 32.6055 101.249 32.806 101.39 32.9556C101.532 33.1053 101.726 33.192 101.93 33.1967H105.016C105.118 33.1959 105.219 33.1746 105.313 33.1339C105.407 33.0933 105.492 33.0341 105.563 32.9598C105.635 32.8856 105.691 32.7977 105.728 32.7013C105.766 32.6048 105.784 32.5018 105.783 32.3981V32.3861L105.785 32.3901ZM101.175 5.5381V8.69845C101.177 8.80149 101.159 8.90389 101.121 8.99979C101.084 9.09569 101.029 9.18322 100.958 9.25738C100.888 9.33153 100.804 9.39087 100.711 9.43199C100.617 9.47311 100.517 9.49521 100.416 9.49703H88.1345C88.0324 9.49625 87.9315 9.47491 87.8376 9.43423C87.7438 9.39355 87.6588 9.33435 87.5876 9.26006C87.5164 9.18577 87.4605 9.09787 87.4231 9.00146C87.3856 8.90506 87.3674 8.80206 87.3695 8.69845V5.53012C87.3658 5.3227 87.4432 5.12223 87.5847 4.97258C87.7262 4.82293 87.9204 4.73626 88.1247 4.73154H100.408C100.51 4.73232 100.611 4.75365 100.705 4.7943C100.799 4.83496 100.884 4.89413 100.956 4.96839C101.027 5.04265 101.083 5.13054 101.121 5.22695C101.158 5.32337 101.177 5.42641 101.175 5.53012V5.54609V5.5381Z" fill="#B22B26"/>
</g>
<defs>
<clipPath id="clip0_30_7">
<rect width="161" height="47" fill="white"/>
</clipPath>
</defs>
</svg>
