<svg width="161" height="47" viewBox="0 0 161 47" fill="none" xmlns="http://www.w3.org/2000/svg">
<g clip-path="url(#clip0_165_643)">
<path fill-rule="evenodd" clip-rule="evenodd" d="M22.252 0H0.767091C0.664926 0.000775244 0.563925 0.0221069 0.469932 0.062761C0.37594 0.103415 0.290819 0.162585 0.219496 0.236848C0.148172 0.311111 0.0920601 0.398993 0.0544058 0.495411C0.0167515 0.591829 -0.00169788 0.69487 0.000124771 0.798573V18.1675C-0.00143661 18.2708 0.0170625 18.3734 0.0545657 18.4695C0.0920688 18.5655 0.147841 18.6531 0.218698 18.7273C0.289554 18.8014 0.374107 18.8607 0.467526 18.9017C0.560946 18.9426 0.661402 18.9645 0.763158 18.9661H8.43282C8.53532 18.9663 8.63674 18.9873 8.73119 19.0277C8.82564 19.0681 8.91123 19.1272 8.98297 19.2015C9.05471 19.2758 9.11117 19.3639 9.14907 19.4606C9.18697 19.5573 9.20555 19.6606 9.20372 19.7647V22.937C9.20003 23.1444 9.27741 23.3449 9.41893 23.4945C9.56045 23.6442 9.75459 23.7309 9.95889 23.7356H13.0386C13.1407 23.7348 13.2417 23.7135 13.3357 23.6728C13.4297 23.6322 13.5148 23.573 13.5861 23.4987C13.6575 23.4245 13.7136 23.3366 13.7512 23.2402C13.7889 23.1437 13.8073 23.0407 13.8055 22.937V19.7647C13.8037 19.6616 13.8219 19.5592 13.859 19.4633C13.8962 19.3674 13.9516 19.2799 14.0221 19.2057C14.0926 19.1316 14.1768 19.0723 14.2699 19.0311C14.363 18.99 14.4631 18.9679 14.5646 18.9661H17.6404C17.7425 18.9669 17.8435 18.9882 17.9375 19.0289C18.0315 19.0695 18.1166 19.1287 18.1879 19.2029C18.2593 19.2772 18.3154 19.3651 18.353 19.4615C18.3907 19.5579 18.4091 19.661 18.4073 19.7647V27.6765C18.4091 27.7796 18.391 27.882 18.3538 27.9779C18.3166 28.0738 18.2612 28.1613 18.1907 28.2355C18.1202 28.3096 18.036 28.3689 17.943 28.4101C17.8499 28.4512 17.7497 28.4733 17.6482 28.4751H5.36889C5.26681 28.4743 5.1659 28.453 5.07202 28.4123C4.97813 28.3716 4.89314 28.3124 4.82197 28.2381C4.75081 28.1638 4.69488 28.0759 4.65744 27.9795C4.62001 27.8831 4.6018 27.7801 4.60389 27.6765V24.4982C4.60571 24.3952 4.58752 24.2928 4.55036 24.1969C4.5132 24.101 4.45779 24.0134 4.38729 23.9393C4.3168 23.8651 4.23261 23.8058 4.13952 23.7647C4.04644 23.7236 3.94629 23.7015 3.84479 23.6996H0.767091C0.664926 23.7004 0.563925 23.7217 0.469932 23.7624C0.37594 23.8031 0.290819 23.8622 0.219496 23.9365C0.148172 24.0107 0.0920601 24.0986 0.0544058 24.195C0.0167515 24.2915 -0.00169788 24.3945 0.000124771 24.4982V32.4141C-0.0016992 32.5171 0.0164904 32.6195 0.0536545 32.7154C0.0908187 32.8113 0.146229 32.8988 0.216721 32.973C0.287213 33.0471 0.371406 33.1065 0.46449 33.1476C0.557574 33.1887 0.657726 33.2108 0.759225 33.2126H22.252C22.3541 33.2119 22.4551 33.1905 22.5491 33.1499C22.6431 33.1092 22.7283 33.05 22.7996 32.9758C22.8709 32.9015 22.927 32.8136 22.9647 32.7172C23.0023 32.6208 23.0208 32.5178 23.0189 32.4141V15.0172C23.0208 14.9141 23.0026 14.8117 22.9654 14.7158C22.9283 14.6199 22.8728 14.5324 22.8024 14.4582C22.7319 14.3841 22.6477 14.3247 22.5546 14.2836C22.4615 14.2425 22.3613 14.2204 22.2598 14.2186H14.5902C14.4889 14.2181 14.3888 14.1973 14.2955 14.1575C14.2021 14.1177 14.1174 14.0596 14.0462 13.9865C13.975 13.9135 13.9187 13.8269 13.8804 13.7318C13.8421 13.6366 13.8227 13.5348 13.8232 13.432V10.2776C13.825 10.1746 13.8069 10.0722 13.7697 9.97629C13.7325 9.88039 13.6771 9.79286 13.6066 9.71871C13.5361 9.64455 13.4519 9.58521 13.3589 9.54409C13.2658 9.50298 13.1656 9.48087 13.0641 9.47906H9.97069C9.86861 9.47983 9.7677 9.50117 9.67382 9.54185C9.57993 9.58253 9.49494 9.64173 9.42377 9.71602C9.3526 9.79031 9.29668 9.87821 9.25924 9.97462C9.22181 10.071 9.2036 10.174 9.20569 10.2776V13.436C9.20751 13.539 9.18932 13.6414 9.15216 13.7373C9.11499 13.8332 9.05958 13.9207 8.98909 13.9949C8.9186 14.0691 8.83441 14.1284 8.74132 14.1695C8.64824 14.2106 8.54809 14.2327 8.44659 14.2346H5.36889C5.26681 14.2338 5.1659 14.2124 5.07202 14.1718C4.97813 14.1311 4.89314 14.0719 4.82197 13.9976C4.75081 13.9233 4.69488 13.8354 4.65744 13.739C4.62001 13.6426 4.6018 13.5396 4.60389 13.436V5.5361C4.6002 5.32868 4.67757 5.12822 4.81909 4.97857C4.96061 4.82891 5.15476 4.74225 5.35906 4.73753H17.6423C17.7445 4.73831 17.8455 4.75964 17.9395 4.80029C18.0335 4.84095 18.1186 4.90012 18.1899 4.97438C18.2612 5.04864 18.3173 5.13652 18.355 5.23294C18.3927 5.32936 18.4111 5.4324 18.4093 5.5361V8.69446C18.4056 8.90188 18.483 9.10234 18.6245 9.252C18.766 9.40165 18.9602 9.48831 19.1645 9.49303H22.252C22.3541 9.49226 22.4551 9.47092 22.5491 9.43027C22.6431 9.38962 22.7283 9.33045 22.7996 9.25618C22.8709 9.18192 22.927 9.09404 22.9647 8.99762C23.0023 8.9012 23.0208 8.79816 23.0189 8.69446V0.798573C23.0208 0.695533 23.0026 0.593139 22.9654 0.497238C22.9283 0.401336 22.8728 0.313807 22.8024 0.239649C22.7319 0.165492 22.6477 0.106159 22.5546 0.065039C22.4615 0.0239194 22.3613 0.00181896 22.2598 0" fill="white"/>
<path fill-rule="evenodd" clip-rule="evenodd" d="M68.2705 0H65.2027C65.1004 0.000507925 64.9993 0.0216579 64.9052 0.0622186C64.8111 0.102779 64.7259 0.16194 64.6545 0.236258C64.5831 0.310575 64.527 0.398564 64.4894 0.495102C64.4519 0.591641 64.4336 0.694799 64.4357 0.798573V22.919C64.432 23.1265 64.5094 23.3269 64.6509 23.4766C64.7924 23.6262 64.9866 23.7129 65.1909 23.7176H68.2705C68.3727 23.7168 68.4737 23.6955 68.5677 23.6549C68.6617 23.6142 68.7468 23.555 68.8181 23.4808C68.8895 23.4065 68.9456 23.3186 68.9832 23.2222C69.0209 23.1258 69.0393 23.0227 69.0375 22.919V0.798573C69.0393 0.695534 69.0211 0.593139 68.984 0.497238C68.9468 0.401336 68.8914 0.313807 68.8209 0.239649C68.7504 0.165492 68.6662 0.106159 68.5731 0.065039C68.4801 0.0239194 68.3799 0.00181896 68.2784 0" fill="white"/>
<path fill-rule="evenodd" clip-rule="evenodd" d="M59.0654 0H55.9976C55.8952 0.00051218 55.794 0.0216499 55.6998 0.0621867C55.6056 0.102723 55.5202 0.161852 55.4487 0.236142C55.3772 0.310431 55.3209 0.398403 55.2831 0.494951C55.2453 0.5915 55.2268 0.694703 55.2286 0.798573V32.3981C55.2268 32.5011 55.245 32.6035 55.2822 32.6994C55.3193 32.7953 55.3747 32.8829 55.4452 32.957C55.5157 33.0312 55.5999 33.0905 55.693 33.1316C55.7861 33.1728 55.8862 33.1949 55.9877 33.1967H77.4825C77.5834 33.1964 77.6834 33.176 77.7766 33.1365C77.8698 33.097 77.9544 33.0393 78.0256 32.9666C78.0968 32.894 78.1532 32.8078 78.1917 32.7129C78.2301 32.6181 78.2497 32.5166 78.2494 32.4141V0.798573C78.2515 0.695795 78.2336 0.593606 78.1968 0.497844C78.16 0.402082 78.1049 0.314624 78.0348 0.240465C77.9647 0.166307 77.8809 0.106901 77.7881 0.0656409C77.6954 0.0243812 77.5955 0.00207612 77.4943 0L74.4048 0C74.3026 0.000775244 74.2016 0.0221069 74.1076 0.0627611C74.0136 0.103415 73.9285 0.162585 73.8572 0.236848C73.7858 0.311111 73.7297 0.398993 73.6921 0.495411C73.6544 0.59183 73.636 0.69487 73.6378 0.798573V27.6606C73.6396 27.7636 73.6214 27.866 73.5843 27.9619C73.5471 28.0578 73.4917 28.1453 73.4212 28.2195C73.3507 28.2936 73.2665 28.353 73.1734 28.3941C73.0803 28.4352 72.9802 28.4573 72.8787 28.4591H60.5994C60.4981 28.4586 60.398 28.4379 60.3047 28.398C60.2113 28.3582 60.1266 28.3001 60.0554 28.2271C59.9842 28.1541 59.9278 28.0675 59.8896 27.9723C59.8513 27.8772 59.8319 27.7753 59.8324 27.6725V0.798573C59.8342 0.695534 59.816 0.593139 59.7789 0.497238C59.7417 0.401336 59.6863 0.313807 59.6158 0.239649C59.5453 0.165492 59.4611 0.106159 59.368 0.065039C59.275 0.0239194 59.1748 0.00181896 59.0733 0" fill="white"/>
<path fill-rule="evenodd" clip-rule="evenodd" d="M40.6513 9.49304H37.5913C37.4891 9.49382 37.3881 9.51515 37.2942 9.5558C37.2002 9.59645 37.115 9.65562 37.0437 9.72989C36.9724 9.80415 36.9163 9.89203 36.8786 9.98845C36.841 10.0849 36.8225 10.1879 36.8243 10.2916V22.939C36.8225 23.042 36.8407 23.1444 36.8779 23.2403C36.915 23.3362 36.9704 23.4238 37.0409 23.4979C37.1114 23.5721 37.1956 23.6314 37.2887 23.6725C37.3818 23.7137 37.4819 23.7358 37.5834 23.7376H40.6592C40.7602 23.7373 40.8601 23.7169 40.9533 23.6774C41.0465 23.6379 41.1311 23.5802 41.2023 23.5075C41.2735 23.4349 41.33 23.3487 41.3684 23.2539C41.4068 23.1591 41.4264 23.0575 41.4261 22.955V10.2776C41.4285 10.1748 41.4108 10.0725 41.3741 9.97661C41.3373 9.88073 41.2823 9.79317 41.2121 9.71895C41.1419 9.64474 41.058 9.58534 40.9651 9.54418C40.8723 9.50301 40.7723 9.48088 40.671 9.47906H40.6592" fill="white"/>
<path fill-rule="evenodd" clip-rule="evenodd" d="M51.2958 37.2115H43.4059C43.1916 37.2115 42.986 37.2979 42.8344 37.4518C42.6828 37.6057 42.5977 37.8144 42.5977 38.032V46.1615C42.5974 46.2694 42.6181 46.3763 42.6586 46.4761C42.6991 46.5759 42.7586 46.6666 42.8337 46.743C42.9088 46.8194 42.998 46.88 43.0962 46.9214C43.1943 46.9627 43.2996 46.984 43.4059 46.984H51.2958C51.4023 46.9843 51.5078 46.9632 51.6062 46.9219C51.7046 46.8807 51.7941 46.8201 51.8693 46.7437C51.9446 46.6673 52.0043 46.5765 52.0449 46.4766C52.0856 46.3767 52.1063 46.2696 52.1061 46.1615V38.042C52.1063 37.9339 52.0856 37.8268 52.0449 37.7269C52.0043 37.627 51.9446 37.5362 51.8693 37.4598C51.7941 37.3834 51.7046 37.3228 51.6062 37.2815C51.5078 37.2403 51.4023 37.2192 51.2958 37.2195" fill="white"/>
<path fill-rule="evenodd" clip-rule="evenodd" d="M8.68434 37.2195H0.798353C0.587583 37.2257 0.38751 37.3151 0.240629 37.4687C0.0937481 37.6223 0.0116317 37.828 0.0117211 38.042V46.1695C0.0114618 46.2776 0.032242 46.3847 0.072868 46.4846C0.113494 46.5845 0.173165 46.6753 0.248454 46.7517C0.323743 46.8281 0.413165 46.8887 0.511584 46.9299C0.610002 46.9712 0.715478 46.9923 0.821952 46.992H8.70991C8.81621 46.992 8.92148 46.9707 9.01967 46.9294C9.11786 46.888 9.20705 46.8274 9.28213 46.751C9.35721 46.6746 9.41671 46.5839 9.45721 46.4841C9.49771 46.3843 9.51843 46.2774 9.51817 46.1695V38.042C9.51843 37.9341 9.49771 37.8272 9.45721 37.7274C9.41671 37.6276 9.35721 37.5369 9.28213 37.4605C9.20705 37.3841 9.11786 37.3235 9.01967 37.2821C8.92148 37.2408 8.81621 37.2195 8.70991 37.2195" fill="white"/>
<path fill-rule="evenodd" clip-rule="evenodd" d="M160.169 37.2195H133.343C133.133 37.2257 132.932 37.3151 132.786 37.4687C132.639 37.6223 132.557 37.828 132.557 38.042V46.1695C132.557 46.3835 132.639 46.5892 132.786 46.7428C132.932 46.8964 133.133 46.9858 133.343 46.992H141.516C141.623 46.992 141.728 46.9707 141.826 46.9294C141.925 46.8881 142.014 46.8275 142.089 46.7511C142.165 46.6747 142.224 46.584 142.265 46.4843C142.306 46.3845 142.327 46.2775 142.327 46.1695V41.0606C142.327 40.8466 142.409 40.6409 142.556 40.4873C142.702 40.3337 142.902 40.2443 143.113 40.2381H150.846C151.06 40.2386 151.266 40.3255 151.417 40.4797C151.569 40.6339 151.654 40.8428 151.654 41.0606V46.1695C151.654 46.3835 151.736 46.5892 151.883 46.7428C152.03 46.8964 152.23 46.9858 152.441 46.992H160.205C160.416 46.9858 160.616 46.8964 160.763 46.7428C160.909 46.5892 160.992 46.3835 160.991 46.1695V38.042C160.992 37.828 160.909 37.6223 160.763 37.4687C160.616 37.3151 160.416 37.2257 160.205 37.2195" fill="white"/>
<path fill-rule="evenodd" clip-rule="evenodd" d="M151.034 0H147.966C147.865 0.000523015 147.765 0.0212839 147.672 0.0610973C147.578 0.100911 147.494 0.158997 147.422 0.232039C147.351 0.305081 147.295 0.391649 147.257 0.4868C147.218 0.581951 147.199 0.683821 147.199 0.786594V8.69646C147.196 8.90388 147.273 9.10434 147.415 9.25399C147.556 9.40365 147.75 9.49031 147.955 9.49503H151.034C151.136 9.49426 151.237 9.47292 151.331 9.43227C151.425 9.39162 151.51 9.33245 151.582 9.25818C151.653 9.18392 151.709 9.09604 151.747 8.99962C151.785 8.9032 151.803 8.80016 151.801 8.69646V0.798573C151.803 0.69487 151.785 0.59183 151.747 0.495411C151.709 0.398993 151.653 0.311111 151.582 0.236848C151.51 0.162585 151.425 0.103415 151.331 0.0627611C151.237 0.0221069 151.136 0.000775244 151.034 0Z" fill="white"/>
<path fill-rule="evenodd" clip-rule="evenodd" d="M49.8554 0H28.3804C28.2782 0.000775244 28.1772 0.0221069 28.0832 0.0627611C27.9892 0.103415 27.9041 0.162585 27.8328 0.236848C27.7615 0.311111 27.7053 0.398993 27.6677 0.495411C27.63 0.59183 27.6116 0.69487 27.6134 0.798573V32.3981C27.6116 32.5011 27.6298 32.6035 27.6669 32.6994C27.7041 32.7953 27.7595 32.8829 27.83 32.957C27.9005 33.0312 27.9847 33.0905 28.0778 33.1316C28.1709 33.1728 28.271 33.1949 28.3725 33.1967H40.6518C40.7528 33.1964 40.8528 33.176 40.9459 33.1365C41.0391 33.097 41.1238 33.0393 41.195 32.9666C41.2662 32.894 41.3226 32.8078 41.361 32.7129C41.3994 32.6181 41.4191 32.5166 41.4188 32.4141V29.2377C41.4211 29.1349 41.4034 29.0326 41.3667 28.9367C41.33 28.8408 41.2749 28.7533 41.2048 28.6791C41.1346 28.6049 41.0507 28.5455 40.9578 28.5043C40.8649 28.4631 40.765 28.441 40.6636 28.4392H32.9822C32.7775 28.4376 32.5819 28.3537 32.4381 28.2058C32.2943 28.058 32.2142 27.8583 32.2152 27.6506V5.53611C32.2134 5.43307 32.2316 5.33067 32.2687 5.23477C32.3059 5.13887 32.3613 5.05134 32.4318 4.97718C32.5023 4.90302 32.5865 4.84369 32.6796 4.80257C32.7727 4.76145 32.8728 4.73935 32.9743 4.73753H45.2615C45.3625 4.73779 45.4624 4.75825 45.5556 4.79772C45.6488 4.83719 45.7334 4.89491 45.8046 4.96758C45.8759 5.04025 45.9323 5.12645 45.9707 5.22126C46.0091 5.31607 46.0287 5.41762 46.0285 5.52013V22.917C46.0266 23.0201 46.0448 23.1225 46.082 23.2184C46.1192 23.3143 46.1746 23.4018 46.2451 23.476C46.3156 23.5501 46.3997 23.6095 46.4928 23.6506C46.5859 23.6917 46.6861 23.7138 46.7876 23.7156H49.8633C49.9643 23.7154 50.0642 23.6949 50.1574 23.6554C50.2506 23.616 50.3352 23.5582 50.4064 23.4856C50.4777 23.4129 50.5341 23.3267 50.5725 23.2319C50.6109 23.1371 50.6305 23.0355 50.6303 22.933V0.798573C50.6324 0.695795 50.6145 0.593606 50.5776 0.497844C50.5408 0.402082 50.4858 0.314624 50.4156 0.240465C50.3455 0.166307 50.2617 0.106901 50.1689 0.0656409C50.0762 0.0243812 49.9763 0.00207612 49.8751 0L49.8653 0" fill="white"/>
<path fill-rule="evenodd" clip-rule="evenodd" d="M85.9129 37.2275H65.488C65.3816 37.2275 65.2764 37.2488 65.1782 37.2901C65.08 37.3315 64.9908 37.3921 64.9157 37.4685C64.8406 37.5449 64.7812 37.6356 64.7406 37.7354C64.7001 37.8352 64.6794 37.9421 64.6797 38.05V46.1795C64.6797 46.3971 64.7648 46.6058 64.9164 46.7597C65.068 46.9136 65.2736 47 65.488 47H73.9049C74.1193 47 74.3249 46.9136 74.4764 46.7597C74.628 46.6058 74.7132 46.3971 74.7132 46.1795V39.4415C74.7132 39.3336 74.7342 39.2267 74.7749 39.1271C74.8156 39.0274 74.8753 38.9368 74.9506 38.8606C75.0259 38.7844 75.1152 38.724 75.2135 38.6829C75.3118 38.6418 75.4171 38.6207 75.5234 38.621H81.7299C81.9405 38.6267 82.1406 38.7157 82.2875 38.8689C82.4345 39.0222 82.5166 39.2276 82.5166 39.4415V43.085C82.5169 43.2143 82.5476 43.3417 82.6061 43.4567C82.6646 43.5716 82.7491 43.6707 82.8529 43.7458L87.0731 46.8323C87.2074 46.9264 87.3662 46.9779 87.5294 46.98H96.1823C96.309 46.9801 96.4338 46.949 96.5461 46.8896C96.6584 46.8302 96.7549 46.7441 96.8274 46.6387C96.9487 46.4628 96.9975 46.2458 96.9633 46.0339C96.9292 45.822 96.8147 45.6321 96.6445 45.5047L93.1636 42.9532C94.1191 42.798 95.0203 42.3997 95.7831 41.7953C96.0255 41.6272 96.2282 41.4066 96.3764 41.1494C96.5247 40.8922 96.6149 40.6048 96.6406 40.308C96.6406 39.2525 95.3951 38.4539 92.9041 37.9122C90.6173 37.4077 88.28 37.1778 85.9404 37.2275" fill="white"/>
<path fill-rule="evenodd" clip-rule="evenodd" d="M118.352 37.2275H110.453C110.242 37.2337 110.042 37.3231 109.895 37.4767C109.748 37.6303 109.666 37.8359 109.666 38.05V46.1795C109.666 46.3932 109.749 46.5983 109.896 46.7515C110.042 46.9047 110.242 46.9938 110.453 47H118.345C118.559 47 118.764 46.9136 118.916 46.7597C119.068 46.6058 119.153 46.3971 119.153 46.1795V38.042C119.153 37.9341 119.132 37.8272 119.092 37.7274C119.051 37.6276 118.992 37.5369 118.917 37.4605C118.842 37.3841 118.752 37.3235 118.654 37.2821C118.556 37.2408 118.451 37.2195 118.345 37.2195" fill="white"/>
<path fill-rule="evenodd" clip-rule="evenodd" d="M28.2705 37.2195H17.4543C17.291 37.2207 17.1319 37.2722 16.998 37.3672L15.6214 38.3654C15.5186 38.4421 15.4349 38.5422 15.3772 38.6576C15.3195 38.7731 15.2893 38.9007 15.2891 39.0302V45.0195C15.289 45.1484 15.3187 45.2755 15.3757 45.3906C15.4327 45.5057 15.5155 45.6056 15.6175 45.6824L17.1671 46.8183C17.299 46.918 17.459 46.9719 17.6234 46.972H28.2547C28.3821 46.9719 28.5075 46.9404 28.6202 46.8803C28.7328 46.8201 28.8295 46.7331 28.9017 46.6267C29.024 46.4515 29.0737 46.2346 29.0402 46.0226C29.0068 45.8106 28.8928 45.6204 28.7228 45.4927L24.945 42.7775C24.8698 42.7216 24.8034 42.6543 24.7483 42.5779C24.6286 42.401 24.5822 42.1834 24.6189 41.9721C24.6557 41.7607 24.7728 41.5725 24.945 41.4479L28.7129 38.6988C28.8508 38.5969 28.9535 38.4533 29.0063 38.2887C29.0591 38.124 29.0594 37.9466 29.0071 37.7818C28.9548 37.617 28.8526 37.4731 28.715 37.3707C28.5774 37.2683 28.4115 37.2126 28.241 37.2115" fill="white"/>
<path fill-rule="evenodd" clip-rule="evenodd" d="M141.825 0H138.757C138.655 0.00051218 138.554 0.0216499 138.46 0.0621867C138.365 0.102723 138.28 0.161852 138.208 0.236142C138.137 0.310431 138.081 0.398403 138.043 0.494951C138.005 0.5915 137.987 0.694703 137.988 0.798573V32.3901C137.987 32.4932 138.005 32.5955 138.042 32.6914C138.079 32.7873 138.135 32.8749 138.205 32.949C138.275 33.0232 138.36 33.0825 138.453 33.1236C138.546 33.1648 138.646 33.1869 138.748 33.1887H141.825C141.927 33.1879 142.028 33.1666 142.122 33.1259C142.216 33.0853 142.301 33.0261 142.373 32.9518C142.444 32.8776 142.5 32.7897 142.538 32.6933C142.576 32.5969 142.594 32.4938 142.592 32.3901V19.7487C142.588 19.5413 142.666 19.3408 142.807 19.1912C142.949 19.0415 143.143 18.9548 143.347 18.9501H155.631C155.733 18.9509 155.834 18.9722 155.928 19.0129C156.022 19.0535 156.107 19.1127 156.178 19.187C156.25 19.2612 156.306 19.3491 156.343 19.4455C156.381 19.542 156.399 19.645 156.398 19.7487V32.4061C156.396 32.5091 156.414 32.6115 156.451 32.7074C156.488 32.8033 156.544 32.8908 156.614 32.965C156.685 33.0392 156.769 33.0985 156.862 33.1396C156.955 33.1807 157.055 33.2028 157.157 33.2047H160.232C160.333 33.2044 160.433 33.1839 160.527 33.1445C160.62 33.105 160.704 33.0473 160.776 32.9746C160.847 32.9019 160.903 32.8157 160.942 32.7209C160.98 32.6261 161 32.5246 160.999 32.4221V0.798573C161.001 0.694966 160.983 0.59197 160.946 0.495563C160.908 0.399155 160.852 0.311256 160.781 0.236965C160.71 0.162674 160.625 0.103472 160.531 0.0627939C160.437 0.0221156 160.336 0.000771433 160.234 0L157.165 0C157.062 0.000775244 156.961 0.0221069 156.867 0.0627611C156.773 0.103415 156.688 0.162585 156.617 0.236848C156.546 0.311111 156.49 0.398993 156.452 0.495411C156.414 0.59183 156.396 0.69487 156.398 0.798573V13.43C156.399 13.533 156.381 13.6354 156.344 13.7313C156.307 13.8272 156.251 13.9148 156.181 13.9889C156.11 14.0631 156.026 14.1224 155.933 14.1635C155.84 14.2047 155.74 14.2268 155.638 14.2286H143.363C143.262 14.228 143.162 14.2073 143.068 14.1675C142.975 14.1277 142.89 14.0696 142.819 13.9965C142.748 13.9235 142.692 13.8369 142.653 13.7418C142.615 13.6466 142.596 13.5447 142.596 13.442V0.798573C142.598 0.695037 142.58 0.592158 142.542 0.49587C142.504 0.399582 142.449 0.311788 142.377 0.237552C142.306 0.163315 142.221 0.104105 142.128 0.0633335C142.034 0.0225623 141.933 0.00103745 141.831 0" fill="white"/>
<path fill-rule="evenodd" clip-rule="evenodd" d="M151.034 23.6996H147.966C147.865 23.7002 147.765 23.7209 147.672 23.7607C147.578 23.8005 147.494 23.8586 147.422 23.9317C147.351 24.0047 147.295 24.0913 147.257 24.1864C147.218 24.2816 147.199 24.3835 147.199 24.4862V32.3981C147.196 32.6055 147.273 32.806 147.415 32.9556C147.556 33.1053 147.75 33.1919 147.955 33.1967H151.034C151.136 33.1959 151.237 33.1746 151.331 33.1339C151.425 33.0932 151.51 33.0341 151.582 32.9598C151.653 32.8856 151.709 32.7977 151.747 32.7013C151.785 32.6048 151.803 32.5018 151.801 32.3981V24.4902C151.803 24.3872 151.785 24.2848 151.748 24.1889C151.71 24.093 151.655 24.0055 151.585 23.9313C151.514 23.8571 151.43 23.7978 151.337 23.7567C151.244 23.7156 151.144 23.6935 151.042 23.6917" fill="white"/>
<path fill-rule="evenodd" clip-rule="evenodd" d="M132.621 0H111.146C111.044 0.000775244 110.943 0.0221069 110.849 0.0627611C110.755 0.103415 110.67 0.162585 110.598 0.236848C110.527 0.311111 110.471 0.398993 110.433 0.495411C110.396 0.59183 110.377 0.69487 110.379 0.798573V18.1795C110.377 18.2825 110.395 18.3849 110.433 18.4808C110.47 18.5767 110.525 18.6643 110.596 18.7384C110.666 18.8126 110.75 18.8719 110.843 18.913C110.936 18.9542 111.037 18.9763 111.138 18.9781H118.808C119.011 18.9802 119.206 19.0642 119.349 19.2116C119.491 19.3591 119.57 19.558 119.569 19.7647V22.941C119.567 23.044 119.585 23.1464 119.622 23.2423C119.66 23.3382 119.715 23.4258 119.785 23.4999C119.856 23.5741 119.94 23.6334 120.033 23.6745C120.126 23.7157 120.226 23.7378 120.328 23.7396H123.404C123.505 23.7393 123.605 23.7189 123.698 23.6794C123.791 23.6399 123.876 23.5822 123.947 23.5095C124.018 23.4369 124.074 23.3507 124.113 23.2558C124.151 23.161 124.171 23.0595 124.171 22.957V19.7647C124.169 19.6616 124.187 19.5592 124.224 19.4633C124.261 19.3674 124.317 19.2799 124.387 19.2058C124.458 19.1316 124.542 19.0723 124.635 19.0311C124.728 18.99 124.828 18.9679 124.93 18.9661H128.025C128.126 18.9664 128.226 18.9868 128.319 19.0263C128.412 19.0658 128.497 19.1235 128.568 19.1961C128.64 19.2688 128.696 19.355 128.734 19.4498C128.773 19.5446 128.792 19.6462 128.792 19.7487V27.6666C128.793 27.7693 128.774 27.8712 128.736 27.9665C128.698 28.0618 128.642 28.1485 128.571 28.2217C128.499 28.2949 128.415 28.3532 128.322 28.3933C128.228 28.4333 128.128 28.4544 128.027 28.4551H115.756C115.551 28.4536 115.355 28.3697 115.212 28.2218C115.068 28.074 114.988 27.8743 114.989 27.6666V24.4902C114.991 24.3874 114.973 24.2851 114.937 24.1892C114.9 24.0933 114.845 24.0058 114.775 23.9315C114.704 23.8573 114.621 23.7979 114.528 23.7568C114.435 23.7156 114.335 23.6935 114.234 23.6917H111.154C111.052 23.6924 110.951 23.7138 110.857 23.7544C110.763 23.7951 110.678 23.8542 110.606 23.9285C110.535 24.0028 110.479 24.0907 110.441 24.1871C110.404 24.2835 110.385 24.3865 110.387 24.4902V32.4061C110.385 32.5091 110.403 32.6115 110.44 32.7074C110.478 32.8033 110.533 32.8908 110.603 32.965C110.674 33.0392 110.758 33.0985 110.851 33.1396C110.944 33.1807 111.044 33.2028 111.146 33.2047H132.629C132.73 33.2044 132.83 33.1839 132.923 33.1445C133.016 33.105 133.101 33.0473 133.172 32.9746C133.243 32.9019 133.3 32.8157 133.338 32.7209C133.377 32.6261 133.396 32.5246 133.396 32.4221V15.0092C133.398 14.9061 133.38 14.8037 133.342 14.7078C133.305 14.6119 133.25 14.5244 133.179 14.4503C133.109 14.3761 133.025 14.3168 132.932 14.2756C132.838 14.2345 132.738 14.2124 132.637 14.2106H124.967C124.865 14.2098 124.764 14.1885 124.67 14.1478C124.576 14.1072 124.491 14.048 124.42 13.9738C124.348 13.8995 124.292 13.8116 124.254 13.7152C124.217 13.6188 124.198 13.5157 124.2 13.412V10.2696C124.202 10.1668 124.185 10.0645 124.148 9.96862C124.111 9.87274 124.056 9.78518 123.986 9.71096C123.916 9.63675 123.832 9.57735 123.739 9.53618C123.646 9.49502 123.546 9.47289 123.445 9.47107H120.355C120.253 9.47185 120.152 9.49318 120.058 9.53383C119.964 9.57449 119.879 9.63366 119.808 9.70792C119.737 9.78218 119.68 9.87007 119.643 9.96648C119.605 10.0629 119.587 10.1659 119.589 10.2696V13.438C119.591 13.5408 119.573 13.6431 119.536 13.739C119.5 13.8349 119.445 13.9225 119.374 13.9967C119.304 14.0709 119.22 14.1303 119.128 14.1714C119.035 14.2126 118.935 14.2347 118.833 14.2366H115.756C115.653 14.2358 115.552 14.2144 115.458 14.1738C115.365 14.1331 115.279 14.074 115.208 13.9997C115.137 13.9254 115.081 13.8376 115.043 13.7411C115.005 13.6447 114.987 13.5417 114.989 13.438V5.53012C114.987 5.42708 115.005 5.32468 115.042 5.22878C115.079 5.13288 115.135 5.04535 115.205 4.97119C115.276 4.89704 115.36 4.8377 115.453 4.79658C115.546 4.75546 115.646 4.73336 115.748 4.73154H128.025C128.126 4.73181 128.226 4.75226 128.319 4.79173C128.412 4.8312 128.497 4.88892 128.568 4.96159C128.64 5.03426 128.696 5.12046 128.734 5.21527C128.773 5.31008 128.792 5.41163 128.792 5.51415V8.70844C128.79 8.81148 128.808 8.91387 128.846 9.00977C128.883 9.10567 128.938 9.1932 129.009 9.26736C129.079 9.34152 129.163 9.40085 129.256 9.44197C129.35 9.48309 129.45 9.50519 129.551 9.50701H132.627C132.728 9.50675 132.828 9.4863 132.921 9.44683C133.014 9.40735 133.099 9.34964 133.17 9.27696C133.241 9.20429 133.298 9.11809 133.336 9.02328C133.375 8.92848 133.394 8.82692 133.394 8.72441V0.798573C133.396 0.695133 133.378 0.592299 133.341 0.496022C133.303 0.399745 133.247 0.311934 133.177 0.23767C133.106 0.163406 133.021 0.104163 132.927 0.0633672C132.833 0.0225718 132.733 0.00103408 132.631 0" fill="white"/>
<path fill-rule="evenodd" clip-rule="evenodd" d="M95.8136 18.9661H92.7359C92.6338 18.9669 92.5329 18.9882 92.439 19.0289C92.3451 19.0696 92.2601 19.1288 92.1889 19.2031C92.1178 19.2774 92.0619 19.3653 92.0244 19.4617C91.987 19.5581 91.9688 19.6611 91.9709 19.7647V32.4161C91.9672 32.6235 92.0445 32.8239 92.1861 32.9736C92.3276 33.1233 92.5217 33.2099 92.726 33.2146H95.8057C95.9079 33.2139 96.0089 33.1925 96.1028 33.1519C96.1968 33.1112 96.282 33.0521 96.3533 32.9778C96.4246 32.9035 96.4807 32.8156 96.5184 32.7192C96.556 32.6228 96.5745 32.5198 96.5727 32.4161V19.7487C96.5745 19.6457 96.5563 19.5433 96.5191 19.4474C96.482 19.3515 96.4266 19.2639 96.3561 19.1898C96.2856 19.1156 96.2014 19.0563 96.1083 19.0152C96.0152 18.9741 95.9151 18.952 95.8136 18.9501" fill="white"/>
<path fill-rule="evenodd" clip-rule="evenodd" d="M47.3408 30.1122C47.3136 30.1118 47.2868 30.1196 47.264 30.1346C47.2411 30.1496 47.2232 30.1712 47.2124 30.1966C47.2016 30.222 47.1985 30.25 47.2034 30.2772C47.2084 30.3044 47.2211 30.3295 47.2401 30.3493C47.2591 30.3691 47.2834 30.3828 47.31 30.3886C47.3367 30.3943 47.3644 30.392 47.3897 30.3818C47.415 30.3716 47.4367 30.354 47.4522 30.3312C47.4676 30.3084 47.4761 30.2815 47.4765 30.2539C47.476 30.2173 47.4616 30.1824 47.4363 30.1563C47.411 30.1303 47.3768 30.1152 47.3408 30.1142" fill="white"/>
<path fill-rule="evenodd" clip-rule="evenodd" d="M46.8545 30.1122C46.8272 30.1118 46.8005 30.1196 46.7777 30.1346C46.7548 30.1496 46.7369 30.1712 46.7261 30.1966C46.7153 30.222 46.7122 30.25 46.7171 30.2772C46.7221 30.3044 46.7348 30.3295 46.7538 30.3493C46.7728 30.3691 46.7971 30.3828 46.8237 30.3886C46.8503 30.3943 46.8781 30.392 46.9034 30.3818C46.9287 30.3716 46.9504 30.354 46.9659 30.3312C46.9813 30.3084 46.9898 30.2815 46.9902 30.2539C46.9897 30.2173 46.9753 30.1824 46.95 30.1563C46.9247 30.1303 46.8905 30.1152 46.8545 30.1142" fill="white"/>
<path fill-rule="evenodd" clip-rule="evenodd" d="M52.0901 27.7165H47.4332C46.8972 27.721 46.3736 27.8803 45.9235 28.1758C45.4734 28.4712 45.1154 28.8906 44.8914 29.3849C44.6673 29.8792 44.5865 30.428 44.6583 30.9673C44.7301 31.5065 44.9515 32.0138 45.2968 32.43C45.6421 32.8462 46.0969 33.1541 46.6081 33.3176C47.1193 33.4811 47.6658 33.4936 48.1837 33.3535C48.7017 33.2134 49.1696 32.9266 49.533 32.5266C49.8963 32.1266 50.14 31.6298 50.2356 31.0944H49.2071L49.1835 31.1703C49.071 31.478 48.8777 31.7486 48.6245 31.9527C48.3712 32.1568 48.0678 32.2865 47.7471 32.3279C47.4263 32.3692 47.1005 32.3206 46.8051 32.1873C46.5097 32.054 46.2558 31.841 46.0712 31.5716C45.8865 31.3022 45.7781 30.9866 45.7576 30.659C45.7372 30.3315 45.8055 30.0045 45.9552 29.7135C46.1049 29.4226 46.3302 29.1789 46.6067 29.0088C46.8832 28.8387 47.2003 28.7487 47.5237 28.7486H50.3732L49.7026 29.9784H50.8511L52.0901 27.7165Z" fill="white"/>
<path fill-rule="evenodd" clip-rule="evenodd" d="M105.785 32.3901V0.798573C105.786 0.694703 105.768 0.5915 105.73 0.494951C105.692 0.398403 105.636 0.310431 105.565 0.236142C105.493 0.161852 105.408 0.102723 105.313 0.0621867C105.219 0.0216499 105.118 0.00051218 105.016 0L83.5327 0C83.4306 0.000775244 83.3296 0.0221069 83.2356 0.0627611C83.1416 0.103415 83.0564 0.162585 82.9851 0.236848C82.9138 0.311111 82.8577 0.398993 82.82 0.495411C82.7824 0.59183 82.7639 0.69487 82.7657 0.798573V32.3901C82.7639 32.4932 82.7821 32.5955 82.8193 32.6914C82.8564 32.7873 82.9119 32.8749 82.9824 32.949C83.0528 33.0232 83.137 33.0825 83.2301 33.1236C83.3232 33.1648 83.4234 33.1869 83.5249 33.1887H86.6006C86.7029 33.1882 86.8041 33.167 86.8983 33.1265C86.9926 33.086 87.0779 33.0268 87.1495 32.9525C87.221 32.8783 87.2773 32.7903 87.3151 32.6937C87.3528 32.5972 87.3713 32.494 87.3695 32.3901V15.0092C87.3677 14.9061 87.3859 14.8037 87.423 14.7078C87.4602 14.6119 87.5156 14.5244 87.5861 14.4503C87.6566 14.3761 87.7408 14.3168 87.8339 14.2756C87.927 14.2345 88.0271 14.2124 88.1286 14.2106H100.408C100.51 14.2116 100.611 14.2332 100.705 14.2739C100.799 14.3146 100.884 14.3738 100.955 14.448C101.026 14.5222 101.082 14.61 101.12 14.7063C101.158 14.8026 101.176 14.9055 101.175 15.0092V32.3981C101.171 32.6055 101.249 32.806 101.39 32.9556C101.532 33.1053 101.726 33.192 101.93 33.1967H105.016C105.118 33.1959 105.219 33.1746 105.313 33.1339C105.407 33.0933 105.492 33.0341 105.563 32.9598C105.635 32.8856 105.691 32.7977 105.728 32.7013C105.766 32.6048 105.784 32.5018 105.783 32.3981V32.3861L105.785 32.3901ZM101.175 5.5381V8.69845C101.177 8.80149 101.159 8.90389 101.121 8.99979C101.084 9.09569 101.029 9.18322 100.958 9.25738C100.888 9.33153 100.804 9.39087 100.711 9.43199C100.617 9.47311 100.517 9.49521 100.416 9.49703H88.1345C88.0324 9.49626 87.9315 9.47491 87.8376 9.43423C87.7438 9.39355 87.6588 9.33435 87.5876 9.26006C87.5164 9.18577 87.4605 9.09787 87.4231 9.00146C87.3856 8.90506 87.3674 8.80206 87.3695 8.69845V5.53012C87.3658 5.3227 87.4432 5.12223 87.5847 4.97258C87.7262 4.82293 87.9204 4.73626 88.1247 4.73154H100.408C100.51 4.73232 100.611 4.75365 100.705 4.7943C100.799 4.83496 100.884 4.89413 100.956 4.96839C101.027 5.04265 101.083 5.13054 101.121 5.22696C101.158 5.32337 101.177 5.42641 101.175 5.53012V5.54609V5.5381Z" fill="white"/>
</g>
<defs>
<clipPath id="clip0_165_643">
<rect width="161" height="47" fill="white"/>
</clipPath>
</defs>
</svg>
