<svg width="35" height="35" viewBox="0 0 35 35" fill="none" xmlns="http://www.w3.org/2000/svg">
<g clip-path="url(#clip0_165_704)">
<path d="M29.8624 0C32.6998 4.44776e-07 35 2.30019 35 5.13761V29.8624C35 32.6998 32.6998 35 29.8624 35H5.13761C2.30019 35 0 32.6998 0 29.8624V5.13761C4.44803e-07 2.30019 2.30019 0 5.13761 0H29.8624ZM7.81242 27.0833H11.9641V13.7053H7.81242V27.0833ZM22.5 13.392C20.4911 13.392 19.1517 14.5106 18.5714 15.5397H18.5267V13.7053H14.5535V27.0833H18.7053V20.4614C18.7053 18.7165 19.0178 17.0611 21.1607 17.0611C23.3034 17.0611 23.3482 19.0296 23.3482 20.5956V27.0833H27.4999V19.7455C27.4999 16.1661 26.6963 13.392 22.5 13.392ZM9.86602 7.08334C8.57137 7.08334 7.49994 8.15722 7.49994 9.45475C7.49995 10.797 8.57139 11.9155 9.86602 11.9155C11.2053 11.9155 12.2767 10.797 12.2768 9.45475C12.2768 8.15723 11.2053 7.08336 9.86602 7.08334Z" fill="white"/>
</g>
<defs>
<clipPath id="clip0_165_704">
<rect width="35" height="35" fill="white"/>
</clipPath>
</defs>
</svg>
