<svg id="Layer_2" data-name="Layer 2" xmlns="http://www.w3.org/2000/svg" width="207.136" height="42.631" viewBox="0 0 207.136 42.631">
  <g id="Layer_1" data-name="Layer 1" transform="translate(0)">
    <path id="Path_667" data-name="Path 667" d="M36.821,3.4V13.953a7.362,7.362,0,0,1,6.886-3.919A8.006,8.006,0,0,1,52.1,18.6a7.95,7.95,0,0,1-8.4,8.565,7.782,7.782,0,0,1-6.914-3.919v3.639H35.17V3.4Zm0,15.171a6.634,6.634,0,0,0,6.774,6.97A6.466,6.466,0,0,0,50.4,18.6a6.438,6.438,0,0,0-6.8-6.97,6.634,6.634,0,0,0-6.746,6.942Z" transform="translate(63.276 6.117)" fill="#53a539"/>
    <path id="Path_668" data-name="Path 668" d="M44.226,3.4V13.477a6.578,6.578,0,0,1,5.962-3.3A6.522,6.522,0,0,1,57.13,17.4v9.489h-1.6V17.4c0-3.415-1.624-5.738-5.346-5.738a5.85,5.85,0,0,0-5.906,6.13v9.1H42.63V3.4Z" transform="translate(76.697 6.117)" fill="#53a539"/>
    <path id="Path_669" data-name="Path 669" d="M65.936,5.945V22.515H64.284v-3.5A7.726,7.726,0,0,1,57.4,22.8,8.4,8.4,0,0,1,49,14.23a8.229,8.229,0,0,1,8.4-8.4,7.474,7.474,0,0,1,6.774,3.835V5.945Zm-15.2,8.4a6.662,6.662,0,0,0,6.662,6.83,6.942,6.942,0,1,0,0-13.856,6.634,6.634,0,0,0-6.662,6.914Z" transform="translate(88.157 10.486)" fill="#53a539"/>
    <path id="Path_670" data-name="Path 670" d="M58.154,6.079v2.8a5.822,5.822,0,0,1,5.6-3.107,6.438,6.438,0,0,1,3.555.98l-.728,1.344a5.4,5.4,0,0,0-2.8-.784,5.6,5.6,0,0,0-5.458,5.6v9.657H56.67V6.079Z" transform="translate(101.957 10.352)" fill="#53a539"/>
    <path id="Path_671" data-name="Path 671" d="M62.974,6.083v2.8a6.578,6.578,0,0,1,5.794-3.107,6.914,6.914,0,0,1,7.474,7.334v9.545H74.618V13.137A5.29,5.29,0,0,0,68.768,7.4,5.766,5.766,0,0,0,63,13.445v9.209H61.35V6.083Z" transform="translate(110.377 10.348)" fill="#53a539"/>
    <path id="Path_672" data-name="Path 672" d="M84.814,5.945V22.515H83.162v-3.5A7.726,7.726,0,0,1,76.389,22.8a8.4,8.4,0,0,1-8.4-8.565,8.229,8.229,0,0,1,8.4-8.4,7.474,7.474,0,0,1,6.774,3.835V5.945Zm-15.2,8.4a6.662,6.662,0,0,0,6.774,6.942,6.942,6.942,0,0,0,0-13.856,6.634,6.634,0,0,0-6.914,6.8Z" transform="translate(122.322 10.486)" fill="#53a539"/>
    <path id="Path_673" data-name="Path 673" d="M11.728,10.713a5.6,5.6,0,0,0-4.115-1.6c-1.931,0-3.023.588-3.023,1.651S5.57,12.448,7.7,12.56c3.107.224,7.082.924,7.082,5.318,0,2.8-2.379,5.43-7.138,5.43A9.657,9.657,0,0,1,0,20.51l2.015-3a9.041,9.041,0,0,0,5.6,2.323c1.54,0,3-.784,3-1.987s-.952-1.6-3.3-1.735c-3-.224-6.746-1.4-6.746-5.122s3.975-5.15,7-5.15A8.873,8.873,0,0,1,14,8.026Z" transform="translate(0 10.476)" fill="#2e9adf"/>
    <path id="Path_674" data-name="Path 674" d="M21.06,20.735a8.4,8.4,0,0,1-6.41,2.631,8.2,8.2,0,0,1-8.761-8.649A8.2,8.2,0,0,1,14.65,5.844a7.95,7.95,0,0,1,5.99,2.435l-2.6,2.8A5.038,5.038,0,0,0,14.65,9.706a4.647,4.647,0,0,0-4.675,5.01,4.507,4.507,0,0,0,4.675,4.7,4.982,4.982,0,0,0,3.639-1.372Z" transform="translate(10.542 10.475)" fill="#2e9adf"/>
    <path id="Path_675" data-name="Path 675" d="M16.027,3.51v9.209a6.1,6.1,0,0,1,5.178-2.491c4.7,0,6.774,3.191,6.774,8.062v8.733H23.892V18.317c0-3.023-1.568-4.283-3.751-4.283a4.227,4.227,0,0,0-4.115,4.507v8.4H11.94V3.51Z" transform="translate(21.482 6.315)" fill="#2e9adf"/>
    <path id="Path_676" data-name="Path 676" d="M35.857,14.562a8.4,8.4,0,0,1-8.621,8.4,8.229,8.229,0,0,1-8.593-8.4A8.4,8.4,0,0,1,27.18,5.913a8.4,8.4,0,0,1,8.677,8.649Zm-13.128,0a4.507,4.507,0,1,0,8.985,0,4.647,4.647,0,0,0-4.479-4.9,4.535,4.535,0,0,0-4.507,4.9Z" transform="translate(33.533 10.63)" fill="#2e9adf"/>
    <path id="Path_677" data-name="Path 677" d="M42.765,14.562a8.621,8.621,0,0,1-17.243,0,8.4,8.4,0,0,1,8.565-8.649,8.4,8.4,0,0,1,8.677,8.649Zm-13.1,0a4.507,4.507,0,1,0,8.957,0,4.675,4.675,0,0,0-4.507-4.9,4.535,4.535,0,0,0-4.451,4.9Z" transform="translate(45.911 10.63)" fill="#2e9adf"/>
    <path id="Path_678" data-name="Path 678" d="M36.749,3.52V27H32.69V3.52Z" transform="translate(58.814 6.333)" fill="#2e9adf"/>
    <rect id="Rectangle_502" data-name="Rectangle 502" width="3.975" height="2.603" transform="translate(68.719 24.52)" fill="#2e9adf"/>
    <path id="Path_679" data-name="Path 679" d="M38.251,13l1.54,1.288a.364.364,0,0,1,.14.252.92.92,0,0,1-.308.588A11.756,11.756,0,0,1,34.584,18.6a10.525,10.525,0,0,1-3.639.644,13.268,13.268,0,0,1-8.761-4.059s-.336-.308-.28-.588a.644.644,0,0,1,.336-.42,14.918,14.918,0,0,1,1.26-.924l1.148.98a9.237,9.237,0,0,0,3.527,2.127,9.4,9.4,0,0,0,6.1-.2,10.581,10.581,0,0,0,3.387-2.351Z" transform="translate(39.397 23.389)" fill="#464646"/>
    <path id="Path_680" data-name="Path 680" d="M16.77,4.535,40.339,0,63.432,4.647Z" transform="translate(30.172)" fill="#2e9adf"/>
    <path id="Path_681" data-name="Path 681" d="M25.289,17.749a25.892,25.892,0,0,1,31.994,0V5.572L66.045,4.4,41.272.31,16.08,4.341l9.125,1.344Z" transform="translate(28.93 0.558)" fill="#464646"/>
    <path id="Path_682" data-name="Path 682" d="M23.2,1.98,28.462.58l4.731,1.4L28.462.944Z" transform="translate(41.74 1.043)" fill="#fff"/>
    <path id="Path_683" data-name="Path 683" d="M16.19,1.76l-.14,7.67h.308Z" transform="translate(28.876 3.166)" fill="#464646"/>
    <path id="Path_684" data-name="Path 684" d="M16.928,6.763l-.392-.812-.9-.14.644-.616-.14-.9.784.42.812-.42-.168.9.644.616-.9.14Z" transform="translate(28.138 7.736)" fill="#2e9adf"/>
  </g>
</svg>
