<?xml version="1.0" encoding="UTF-8" standalone="no"?>
<!DOCTYPE svg PUBLIC "-//W3C//DTD SVG 1.1//EN" "http://www.w3.org/Graphics/SVG/1.1/DTD/svg11.dtd">
<svg width="100%" height="100%" viewBox="0 0 176 175" version="1.1" xmlns="http://www.w3.org/2000/svg" xmlns:xlink="http://www.w3.org/1999/xlink" xml:space="preserve" xmlns:serif="http://www.serif.com/" style="fill-rule:evenodd;clip-rule:evenodd;stroke-linejoin:round;stroke-miterlimit:2;">
    <g transform="matrix(1,0,0,1,-772,-842)">
        <g transform="matrix(1.69784,0,0,1.69784,-496.681,-552.117)">
            <path d="M798.936,821.32C827.313,821.32 850.351,844.358 850.351,872.735C850.351,901.112 827.313,924.15 798.936,924.15C770.559,924.15 747.521,901.112 747.521,872.735C747.521,844.358 770.559,821.32 798.936,821.32ZM807.543,841.519C810.267,841.519 812.478,843.73 812.478,846.454C812.478,849.177 810.267,851.389 807.543,851.389C804.82,851.389 802.608,849.177 802.608,846.454C802.608,843.73 804.82,841.519 807.543,841.519Z" style="fill:rgb(5,5,5);"/>
        </g>
    </g>
</svg>
