<svg width="35" height="35" viewBox="0 0 35 35" fill="none" xmlns="http://www.w3.org/2000/svg">
<g clip-path="url(#clip0_165_700)">
<path d="M29.8624 0C32.6998 4.44776e-07 35 2.30019 35 5.13761V29.8624C35 32.6998 32.6998 35 29.8624 35H5.13761C2.30019 35 0 32.6998 0 29.8624V5.13761C4.44803e-07 2.30019 2.30019 0 5.13761 0H29.8624ZM17.7813 21.2999C17.7813 22.9687 16.3699 24.3526 14.6681 24.3528C12.9662 24.3528 11.5549 22.9687 11.5549 21.2999C11.5549 19.631 12.9662 18.247 14.6681 18.247C15.0001 18.247 15.2907 18.2878 15.6228 18.41V14.7467C15.2907 14.706 15.0001 14.6653 14.6681 14.6653C10.9323 14.6653 7.94364 17.6366 7.94364 21.2999C7.94365 24.9632 10.9323 27.8939 14.6681 27.8939C18.4039 27.8939 21.434 24.9632 21.434 21.2999V14.014C22.8452 15.0316 24.5886 15.6015 26.4981 15.6015H26.5396V12.0603H26.4981C25.5018 12.0603 24.5472 11.7752 23.7584 11.2461C22.5962 10.5134 21.7661 9.33307 21.5171 7.98989C21.434 7.70498 21.434 7.42 21.434 7.13509V7.05372H17.7813V21.2999Z" fill="white"/>
</g>
<defs>
<clipPath id="clip0_165_700">
<rect width="35" height="35" fill="white"/>
</clipPath>
</defs>
</svg>
