<svg width="35" height="35" viewBox="0 0 35 35" fill="none" xmlns="http://www.w3.org/2000/svg">
<g clip-path="url(#clip0_165_702)">
<path d="M29.8624 0C32.6998 4.44776e-07 35 2.30019 35 5.13761V29.8624C35 32.6998 32.6998 35 29.8624 35H5.13761C2.30019 35 0 32.6998 0 29.8624V5.13761C4.44803e-07 2.30019 2.30019 0 5.13761 0H29.8624ZM9.27132 12.8759C9.14319 12.5209 7.93495 12.4761 7.64793 12.6836C7.29816 12.9348 7.49804 14.1457 7.49804 14.5416V18.7698C7.49806 19.2068 7.66071 20.0511 7.43392 20.4355C7.23448 20.7743 6.76144 20.703 6.41277 20.6929L6.34739 20.6917C6.41658 21.0236 6.61909 21.8244 6.90226 22.0372C7.54675 22.5201 8.84336 21.9603 9.12269 21.3323C9.41482 20.6738 9.29311 19.8562 9.29311 19.1542V15.054C9.29313 14.4338 9.48142 13.4575 9.27132 12.8759ZM24.0267 12.6195V13.2602H22.8736V15.054H24.0267V16.5916H22.2329V18.3854H24.0267V22.1011H25.8205V18.3854H27.7425C28.0128 18.3854 28.3909 18.3175 28.6395 18.4495C29.107 18.6982 29.2685 20.1497 28.8739 20.5212C28.5394 20.8364 27.7797 20.6917 27.3581 20.6917C27.4286 21.0761 27.5773 21.7949 27.9128 22.0372C28.0936 22.1666 28.4332 22.1011 28.6395 22.1011C29.3045 22.1011 30.0578 22.178 30.519 21.5886C30.9366 21.053 30.8175 20.3021 30.8175 19.6666C30.8175 18.4737 31.0084 17.0017 29.5363 16.6338C29.2852 16.5711 29.0238 16.5916 28.7676 16.5916C28.7676 15.2783 28.8931 13.7715 27.3581 13.3025C26.8981 13.1628 26.2985 13.2602 25.8205 13.2602V12.6195H24.0267ZM12.7514 22.1011H15.5703L16.2109 20.4355L14.4171 20.3933L13.4343 20.3714L12.7514 22.1011ZM17.7484 13.2602V15.054H18.7735V20.4355L17.15 20.4996L16.467 22.1011H22.361V20.4355H20.6953V15.054H21.7204V13.2602H17.7484ZM4.55108 15.054L4.16662 19.2824L4.93551 21.3323L5.81055 19.7947L6.34487 15.054H4.55108ZM10.445 15.054C10.445 15.9457 10.6154 16.8594 10.7012 17.7447C10.8229 18.9928 10.9101 20.1152 11.5982 21.2042H11.8544L12.6233 19.2824L12.2388 15.054H10.445ZM16.467 12.6195C15.9405 12.5772 15.1884 12.339 14.6951 12.6836C14.344 12.9297 14.1518 13.7702 13.9903 14.1571C13.7597 14.7094 12.6514 16.311 13.6482 16.6775C13.9147 16.7748 14.2659 16.7197 14.5452 16.7197C14.4235 17.2937 14.1147 17.846 13.8828 18.3854C13.7726 18.6442 13.5752 19.0005 13.7123 19.2824C14.0109 19.8986 15.1397 19.6666 15.6984 19.6666C15.9456 19.6666 16.2352 19.714 16.4248 19.5168C16.6823 19.2478 16.8528 18.6007 16.9797 18.2573L15.8265 18.1292L17.1078 15.054H15.5703L16.467 12.6195ZM26.9738 15.054V16.5916H25.8205V15.054H26.9738ZM30.5396 14.776C31.58 13.6331 29.4941 12.5184 29.0661 13.9008C28.9707 14.208 29.0099 14.582 29.0211 14.9144L29.0237 15.0527C29.3594 15.0527 29.7208 15.0925 30.0488 15.0105C30.2142 14.9695 30.4217 14.9067 30.5396 14.776Z" fill="white"/>
</g>
<defs>
<clipPath id="clip0_165_702">
<rect width="35" height="35" fill="white"/>
</clipPath>
</defs>
</svg>
