<svg width="35" height="35" viewBox="0 0 35 35" fill="none" xmlns="http://www.w3.org/2000/svg">
<g clip-path="url(#clip0_165_698)">
<path d="M29.8624 0C32.6998 4.44776e-07 35 2.30019 35 5.13761V29.8624C35 32.6998 32.6998 35 29.8624 35H5.13761C2.30019 35 0 32.6998 0 29.8624V5.13761C4.44803e-07 2.30019 2.30019 0 5.13761 0H29.8624ZM17.7134 10.0001C17.7134 10.0001 10.419 9.99993 8.58475 10.4947C7.60364 10.7421 6.7932 11.5257 6.53726 12.5152C6.02666 14.2428 6.02535 17.9394 6.02535 17.9579C6.02535 17.9579 6.02538 21.6276 6.53726 23.4006C6.7932 24.3902 7.60364 25.1324 8.58475 25.3798C10.419 25.8334 17.7134 25.8332 17.7134 25.8332C17.7347 25.8332 24.9675 25.8327 26.7992 25.3798C27.7804 25.1324 28.591 24.3902 28.8469 23.4006C29.3587 21.6276 29.3586 17.9579 29.3586 17.9579C29.3586 17.9394 29.3575 14.2428 28.8469 12.5152C28.591 11.5257 27.7804 10.7421 26.7992 10.4947C24.9677 10.0007 17.7347 10.0001 17.7134 10.0001ZM21.382 17.9579L15.3246 21.2977V14.6181L21.382 17.9579Z" fill="white"/>
</g>
<defs>
<clipPath id="clip0_165_698">
<rect width="35" height="35" fill="white"/>
</clipPath>
</defs>
</svg>
